<svg width="68" height="34" viewBox="0 0 68 34" fill="none" xmlns="http://www.w3.org/2000/svg">
<g clip-path="url(#clip0)">
<path d="M56.4761 25.0751C54.2775 25.0751 52.4766 26.8527 52.4766 29.0746C52.4766 31.2732 54.2541 33.0742 56.4761 33.0742C58.6747 33.0742 60.4757 31.2966 60.4757 29.0746C60.4757 26.8761 58.6747 25.0751 56.4761 25.0751ZM56.4761 31.5539C55.0962 31.5539 53.9969 30.4546 53.9969 29.0746C53.9969 27.6947 55.0962 26.5954 56.4761 26.5954C57.8561 26.5954 58.9554 27.6947 58.9554 29.0746C58.9554 30.4546 57.8561 31.5539 56.4761 31.5539Z" fill="#C4C4C4"/>
<path d="M66.5098 24.9114C66.5098 24.9114 66.463 21.5199 64.9895 20.6779C63.5159 19.8359 58.955 17.5204 58.955 17.5204C58.955 17.5204 58.6276 17.2865 58.0429 17.3566L50.9559 10.0358C50.9559 10.0358 48.7573 8.51551 42.3955 8.00095C42.3955 8.00095 41.2026 8.16467 41.2026 9.52125C41.2026 10.8778 41.2026 18.2454 41.2026 18.2454H40.5243V0.680115H0.248047V24.6775H5.46385V27.8818H12.6443C12.9952 26.4785 13.9308 25.3324 15.1938 24.6775C15.8721 24.3266 16.6205 24.1395 17.4391 24.1395C18.2578 24.1395 19.0062 24.35 19.6845 24.6775C20.9475 25.309 21.8831 26.4785 22.2339 27.8818H31.8703V28.677L34.0221 29.4489H51.4705C51.4705 29.3319 51.4471 29.215 51.4471 29.098C51.4471 26.4317 53.8094 24.046 56.4992 24.046C59.1655 24.046 61.5512 26.4083 61.5512 29.098C61.5512 29.215 61.5512 29.3319 61.5279 29.4489C61.9956 29.4489 64.1007 29.4723 64.6152 29.2618C67.0009 28.3028 67.0477 26.7357 67.0945 26.0574C67.1179 25.3558 66.5098 24.9114 66.5098 24.9114ZM52.944 17.4736C52.944 17.918 52.4294 17.8244 52.4294 17.8244C48.079 17.801 48.4767 17.8712 45.8337 17.5438C44.6876 17.4034 43.5415 17.4268 43.3544 16.7719C43.1439 16.0702 43.3076 11.5795 43.3076 10.9246C43.3076 10.2697 44.0561 10.41 44.0561 10.41C44.0561 10.41 47.7282 10.7375 48.7573 11.0182C49.7631 11.2988 52.6399 13.8483 52.6399 13.8483C52.9206 14.1523 52.944 14.6903 52.944 14.854C52.944 14.8306 52.944 17.0292 52.944 17.4736Z" fill="#C4C4C4"/>
<path d="M17.439 25.2622C15.2404 25.2622 13.4395 27.0398 13.4395 29.2618C13.4395 31.4604 15.217 33.2613 17.439 33.2613C19.6376 33.2613 21.4386 31.4837 21.4386 29.2618C21.4386 27.0398 19.6376 25.2622 17.439 25.2622ZM17.439 31.7176C16.059 31.7176 14.9598 30.6183 14.9598 29.2384C14.9598 27.8584 16.059 26.7591 17.439 26.7591C18.819 26.7591 19.9183 27.8584 19.9183 29.2384C19.9183 30.6183 18.819 31.7176 17.439 31.7176Z" fill="#C4C4C4"/>
</g>
<defs>
<clipPath id="clip0">
<rect x="0.248047" y="0.680115" width="66.8231" height="32.5578" rx="3" fill="white"/>
</clipPath>
</defs>
</svg>
