<svg width="98" height="36" viewBox="0 0 98 36" fill="none" xmlns="http://www.w3.org/2000/svg">
<path fill-rule="evenodd" clip-rule="evenodd" d="M94.4056 9.07277C92.8066 7.54642 82.3887 7.20724 81.5892 7.20724C80.7897 7.20724 80.7897 8.39418 80.7897 8.39439C80.7897 8.3944 80.7897 8.3944 80.7897 8.3944V22.8841C80.7897 23.0704 80.6677 23.2334 80.4943 23.3014C80.2006 23.4166 79.869 23.214 79.869 22.8985V4.00918C79.869 3.47395 79.4351 3.04007 78.8999 3.04007C78.3647 3.04007 77.9308 3.47396 77.9308 4.00918V21.7439C77.9308 23.1354 76.8027 24.2635 75.4111 24.2635C74.0195 24.2635 72.8914 23.1354 72.8914 21.7439V17.2991C72.8914 17.1774 72.8986 17.0578 72.9149 16.9371C73.0119 16.22 73.4183 13.4388 74.2869 10.192C74.3566 9.93142 74.3936 9.66287 74.3936 9.39309V7.03764C74.3936 6.74691 74.1755 6.52886 73.8848 6.52886H68.4578C68.167 6.52886 67.949 6.74691 67.949 7.03764C67.949 7.7706 67.2108 8.27334 66.5287 8.00482L52.2844 2.39663C51.9501 2.265 51.5787 2.26243 51.2426 2.3894C50.8793 2.52666 50.4761 2.51214 50.1236 2.34913L45.5538 0.235828C44.9379 -0.0489788 44.213 0.0470713 43.6926 0.482441L42.3292 1.62295C42.1729 1.75367 42.1772 1.99528 42.3381 2.12036C42.4159 2.18091 42.4615 2.27401 42.4615 2.37264V4.80271C42.4615 5.00296 42.3604 5.1897 42.1928 5.29929C41.9775 5.44011 41.8774 5.70372 41.9451 5.95199L42.2589 7.10246C42.264 7.12141 42.2813 7.13455 42.3009 7.13455C42.3233 7.13455 42.342 7.1515 42.3444 7.17374C42.3671 7.38151 42.4163 7.71991 42.4458 7.92251L42.4615 8.03098C42.462 8.03656 42.4626 8.0421 42.4633 8.0476C42.4967 8.32699 42.7197 8.53028 42.9359 8.71046C43.0898 8.83877 43.2518 8.97934 43.3094 9.04854C43.5032 9.26659 43.5759 9.70269 43.261 10.0176C43.1202 10.1818 42.9114 10.2154 42.7334 10.2064C42.5004 10.1947 42.325 10.0858 42.1441 9.93839C41.9887 9.81178 41.7495 9.65399 41.7686 9.45445C41.7706 9.43333 41.7753 9.41116 41.7831 9.38773C41.7898 9.37092 41.7937 9.35363 41.7951 9.33641C41.8124 9.12154 41.4766 9.19164 41.3742 9.3813C41.3091 9.50166 41.2624 9.65687 41.2743 9.82383C41.3228 10.163 42.1707 11.0837 42.4372 11.1806C43.2125 11.5198 43.9151 11.0594 44.3028 10.6718C44.7146 10.3084 44.8115 9.99342 44.8115 9.60578C44.8115 9.39198 44.7305 9.19293 44.6578 9.05739C44.5912 8.93335 44.494 8.83007 44.3924 8.73268L43.5148 7.89162C43.4297 7.81007 43.3797 7.69861 43.3753 7.58083L43.3594 7.15216C43.3586 7.12931 43.3769 7.11032 43.3997 7.11032C43.4179 7.11032 43.4339 7.09815 43.4387 7.08059L43.7531 5.92776C43.8208 5.67949 43.7207 5.41589 43.5054 5.27506C43.3378 5.16547 43.2367 4.97873 43.2367 4.77848V3.20653C43.2367 2.81649 43.4372 2.45385 43.7676 2.24644C44.087 2.04586 44.4853 2.01729 44.8301 2.17023L56.0932 7.16598C56.2053 7.21571 56.2566 7.34633 56.2083 7.45907C56.173 7.54146 56.0907 7.59117 56.0039 7.61327C55.864 7.64885 55.7378 7.7349 55.6656 7.86138C55.5202 8.12789 55.6171 8.44285 55.8594 8.61244L56.1016 8.75781C56.1259 8.76992 56.144 8.78203 56.1622 8.79415C56.1778 8.80451 56.1933 8.81488 56.2127 8.82524C56.2193 8.82879 56.2267 8.83049 56.2342 8.83049C56.2426 8.83049 56.2509 8.83268 56.2581 8.83685L59.9794 10.9604C60.434 11.2198 60.6922 11.7835 61.141 12.0528L69.0591 16.5324C69.062 16.534 69.0652 16.5349 69.0685 16.5349C69.0791 16.5349 69.0877 16.5435 69.0877 16.5541V17.4071C69.0877 17.8888 68.6972 18.2793 68.2155 18.2793H65.1386C64.8479 18.2793 64.6298 18.4973 64.6298 18.7881C64.6298 20.1529 63.5234 21.2593 62.1586 21.2593H15.5324C14.6961 21.2593 14.0181 21.9372 14.0181 22.7735C14.0181 23.6098 13.3402 24.2878 12.5039 24.2878H5.78072C4.52294 24.2878 3.50331 25.3074 3.50331 26.5652V28.0431C3.50331 28.4846 3.14536 28.8426 2.7038 28.8426H2.12233C2.00191 28.8426 1.90428 28.745 1.90428 28.6245C1.90428 28.5041 1.80666 28.4065 1.68623 28.4065H1.3955C1.11451 28.4065 0.886719 28.6343 0.886719 28.9153V30.2236C0.886719 30.5045 1.11451 30.7323 1.3955 30.7323H1.46818C1.70903 30.7323 1.90428 30.5371 1.90428 30.2962C1.90428 30.0554 2.09953 29.8601 2.34038 29.8601H5.86551C6.08629 29.8601 6.26527 29.6812 6.26527 29.4604C6.26527 29.2396 6.44425 29.0606 6.66502 29.0606H15.7796C17.1631 29.0606 18.3097 28.0588 19.1019 26.9246C20.2474 25.2845 22.1432 24.2151 24.2907 24.2151C26.4381 24.2151 28.3339 25.2845 29.4795 26.9246C30.2717 28.0588 31.4182 29.0606 32.8017 29.0606H75.7435C76.4978 29.0606 77.1332 28.5238 77.4705 27.8492C77.5356 27.6972 77.6203 27.5452 77.7069 27.3931C77.7268 27.3582 77.751 27.3255 77.7733 27.292C77.7957 27.2584 77.8209 27.2266 77.8433 27.1931L78.09 26.823C78.0969 26.8126 78.1048 26.803 78.1136 26.7943C78.1209 26.7869 78.1277 26.779 78.1337 26.7705C78.3736 26.4368 78.637 26.1497 78.9241 25.8626C80.0628 24.7965 81.6134 24.1424 83.2851 24.1424C86.8224 24.1424 89.7055 27.0255 89.7055 30.5627C89.7055 31.593 90.5407 32.4283 91.571 32.4283H96.6104C97.2527 32.4283 97.3842 31.1035 97.406 30.7957C97.4091 30.753 97.4099 30.7109 97.4099 30.6681V25.2326V20.7021C97.4099 18.4973 96.0047 10.5991 94.4056 9.07277ZM62.1586 10.4537C61.6995 10.2033 61.0944 10.2543 60.6401 9.99508L57.3951 8.14352C57.3064 8.09289 57.2686 7.9846 57.3065 7.88975C57.3497 7.78175 57.4741 7.73142 57.5803 7.779L65.7312 11.4329C65.7878 11.4582 65.8386 11.4948 65.8807 11.5403C66.2376 11.9262 65.7723 12.5122 65.3155 12.252L62.1586 10.4537ZM95.1126 17.3346C95.1094 17.3345 95.1105 17.3346 95.1073 17.3344C95.0043 17.3276 86.6217 16.7757 85.5141 16.5349C84.6058 16.3375 84.5021 15.4642 84.4948 15.1478C84.4931 15.071 84.4965 14.9944 84.4965 14.9176V11.7392C84.4965 11.5609 84.476 11.3828 84.4796 11.2046C84.4868 10.848 84.6165 10.2599 85.3929 10.2599H93.17C94.2867 10.2599 94.5768 11.1311 94.5982 11.2004C94.5992 11.2037 94.5992 11.204 94.6002 11.2073C94.6297 11.3105 95.5739 14.6187 95.9078 16.0019C96.2581 17.3565 95.19 17.3377 95.1126 17.3346ZM83.3094 25.2569C80.3779 25.2569 78.0035 27.6312 78.0035 30.5627C78.0035 33.4943 80.3779 35.8686 83.3094 35.8686C86.241 35.8686 88.6153 33.4943 88.6153 30.5627C88.6153 27.6312 86.241 25.2569 83.3094 25.2569ZM83.3094 33.4458C81.7104 33.4458 80.4263 32.1618 80.4263 30.5627C80.4263 28.9637 81.7104 27.6796 83.3094 27.6796C84.9084 27.6796 86.1925 28.9637 86.1925 30.5627C86.1925 32.1618 84.9084 33.4458 83.3094 33.4458ZM19.0574 30.5627C19.0574 27.6312 21.4317 25.2569 24.3633 25.2569C27.2948 25.2569 29.6692 27.6312 29.6692 30.5627C29.6692 33.4943 27.2948 35.8686 24.3633 35.8686C21.4317 35.8686 19.0574 33.4943 19.0574 30.5627ZM21.4802 30.5627C21.4802 32.1618 22.7643 33.4458 24.3633 33.4458C25.9623 33.4458 27.2706 32.1618 27.2464 30.5627C27.2464 28.9637 25.9623 27.6796 24.3633 27.6796C22.7643 27.6796 21.4802 28.9637 21.4802 30.5627Z" fill="#C4C4C4"/>
</svg>
