<svg width="97" height="34" viewBox="0 0 97 34" fill="none" xmlns="http://www.w3.org/2000/svg">
<g clip-path="url(#clip0)">
<path d="M82.2908 23.2247C79.3751 23.2247 77.0137 25.6114 77.0137 28.5583C77.0137 31.5051 79.3751 33.8918 82.2908 33.8918C85.2064 33.8918 87.5679 31.5051 87.5679 28.5583C87.5679 25.6114 85.2064 23.2247 82.2908 23.2247ZM82.2908 31.4564C80.7004 31.4564 79.4233 30.1656 79.4233 28.5583C79.4233 26.9509 80.7004 25.6601 82.2908 25.6601C83.8811 25.6601 85.1582 26.9509 85.1582 28.5583C85.1582 30.1656 83.8811 31.4564 82.2908 31.4564Z" fill="#C4C4C4"/>
<path d="M93.3265 6.95605C91.7361 5.42173 81.3747 5.08078 80.5795 5.08078C79.7843 5.08078 79.7843 6.27413 79.7843 6.27413V21.1546C79.4711 21.252 79.1578 21.3981 78.8687 21.5442V0.891846H76.941V22.2262H71.9048V19.2062H13.3506V22.2505H2.91686V26.8535H1.3265V26.4151H0.314453V28.7531H1.3265V27.8763H5.66385V27.0727H17.4711C18.1458 24.2719 20.6277 22.2018 23.5916 22.2018C26.5554 22.2018 29.0373 24.2719 29.712 27.0727H76.0494C76.1458 26.6343 76.2904 26.2446 76.4831 25.8549C76.5554 25.6845 76.6518 25.514 76.7482 25.3435C76.7723 25.3192 76.7964 25.2704 76.8205 25.2461C76.9169 25.1 77.0133 24.9538 77.1096 24.8077L77.1337 24.7834C77.3747 24.4424 77.6398 24.1501 77.9289 23.8579C79.0614 22.7863 80.6036 22.1287 82.2663 22.1287C85.7843 22.1287 88.6518 25.0269 88.6518 28.5826V30.4579C88.6518 30.4579 94.7964 30.4579 95.5193 30.4579C96.2422 30.4579 96.3145 28.7531 96.3145 28.7531V23.2003C96.3145 23.2003 96.3145 20.8623 96.3145 18.6461C96.3145 16.4299 94.9169 8.49037 93.3265 6.95605ZM94.0253 15.2608C94.0253 15.2608 85.5916 14.7007 84.4831 14.4572C83.3747 14.2136 83.4711 12.9472 83.4711 12.9472V9.36712C83.4711 9.36712 83.2542 8.14941 84.3626 8.14941C84.3626 8.14941 90.941 8.14941 92.0976 8.14941C93.2542 8.14941 93.5193 9.09923 93.5193 9.09923C93.5193 9.09923 94.4831 12.5088 94.8205 13.9214C95.1819 15.3339 94.0253 15.2608 94.0253 15.2608Z" fill="#C4C4C4"/>
<path d="M23.6638 23.2247C20.7482 23.2247 18.3867 25.6114 18.3867 28.5583C18.3867 31.5051 20.7482 33.8918 23.6638 33.8918C26.5795 33.8918 28.9409 31.5051 28.9409 28.5583C28.9409 25.6114 26.5795 23.2247 23.6638 23.2247ZM23.6638 31.4564C22.0735 31.4564 20.7964 30.1656 20.7964 28.5583C20.7964 26.9509 22.0735 25.6601 23.6638 25.6601C25.2542 25.6601 26.5313 26.9509 26.5313 28.5583C26.5554 30.1656 25.2542 31.4564 23.6638 31.4564Z" fill="#C4C4C4"/>
</g>
<defs>
<clipPath id="clip0">
<rect x="0.314453" y="0.891846" width="96" height="33" rx="3" fill="white"/>
</clipPath>
</defs>
</svg>
