<svg width="68" height="33" viewBox="0 0 68 33" fill="none" xmlns="http://www.w3.org/2000/svg">
<g clip-path="url(#clip0)">
<path d="M57.0972 24.8119C54.8986 24.8119 53.0977 26.5895 53.0977 28.8115C53.0977 31.0101 54.8752 32.811 57.0972 32.811C59.2958 32.811 61.0968 31.0334 61.0968 28.8115C61.0968 26.6129 59.2958 24.8119 57.0972 24.8119ZM57.0972 31.2907C55.7172 31.2907 54.618 30.1914 54.618 28.8115C54.618 27.4315 55.7172 26.3322 57.0972 26.3322C58.4772 26.3322 59.5765 27.4315 59.5765 28.8115C59.5765 30.1914 58.4772 31.2907 57.0972 31.2907Z" fill="#C4C4C4"/>
<path d="M67.1309 24.6482C67.1309 24.6482 67.0841 21.2567 65.6105 20.4147C64.137 19.5727 59.5761 17.2572 59.5761 17.2572C59.5761 17.2572 59.2487 17.0233 58.664 17.0935L51.577 9.77263C51.577 9.77263 49.3784 8.25233 43.0165 7.73776C43.0165 7.73776 41.8237 7.90149 41.8237 9.25807C41.8237 10.6146 41.8237 17.9823 41.8237 17.9823H41.1454V0.416931H0.869141V24.4143H6.08494V27.6186H13.2654C13.6163 26.2153 14.5518 25.0692 15.8149 24.4143C16.4932 24.0635 17.2416 23.8763 18.0602 23.8763C18.8789 23.8763 19.6273 24.0868 20.3056 24.4143C21.5686 25.0458 22.5042 26.2153 22.855 27.6186H32.4914V28.4139L34.6432 29.1857H52.0916C52.0916 29.0688 52.0682 28.9518 52.0682 28.8349C52.0682 26.1685 54.4305 23.7828 57.1203 23.7828C59.7866 23.7828 62.1723 26.1451 62.1723 28.8349C62.1723 28.9518 62.1723 29.0688 62.1489 29.1857C62.6167 29.1857 64.7218 29.2091 65.2363 28.9986C67.622 28.0396 67.6688 26.4725 67.7156 25.7943C67.739 25.0926 67.1309 24.6482 67.1309 24.6482ZM53.5651 17.2104C53.5651 17.6548 53.0505 17.5612 53.0505 17.5612C48.7001 17.5379 49.0978 17.608 46.4548 17.2806C45.3087 17.1402 44.1626 17.1636 43.9755 16.5087C43.765 15.8071 43.9287 11.3163 43.9287 10.6614C43.9287 10.0065 44.6772 10.1469 44.6772 10.1469C44.6772 10.1469 48.3493 10.4743 49.3784 10.755C50.3842 11.0356 53.261 13.5851 53.261 13.5851C53.5417 13.8891 53.5651 14.4271 53.5651 14.5908C53.5651 14.5674 53.5651 16.766 53.5651 17.2104Z" fill="#C4C4C4"/>
<path d="M18.0601 24.999C15.8615 24.999 14.0605 26.7766 14.0605 28.9986C14.0605 31.1972 15.8381 32.9981 18.0601 32.9981C20.2587 32.9981 22.0597 31.2206 22.0597 28.9986C22.0597 26.7766 20.2587 24.999 18.0601 24.999ZM18.0601 31.4545C16.6801 31.4545 15.5808 30.3552 15.5808 28.9752C15.5808 27.5952 16.6801 26.4959 18.0601 26.4959C19.4401 26.4959 20.5394 27.5952 20.5394 28.9752C20.5394 30.3552 19.4401 31.4545 18.0601 31.4545Z" fill="#C4C4C4"/>
</g>
<defs>
<clipPath id="clip0">
<rect x="0.869141" y="0.416931" width="66.8231" height="32.5578" rx="3" fill="white"/>
</clipPath>
</defs>
</svg>
