<svg width="97" height="34" viewBox="0 0 97 34" fill="none" xmlns="http://www.w3.org/2000/svg">
<g clip-path="url(#clip0)">
<path d="M82.1091 22.6561C79.1935 22.6561 76.832 25.0429 76.832 27.9897C76.832 30.9366 79.1935 33.3233 82.1091 33.3233C85.0248 33.3233 87.3862 30.9366 87.3862 27.9897C87.3862 25.0429 85.0248 22.6561 82.1091 22.6561ZM82.1091 30.8879C80.5188 30.8879 79.2417 29.5971 79.2417 27.9897C79.2417 26.3823 80.5188 25.0916 82.1091 25.0916C83.6995 25.0916 84.9766 26.3823 84.9766 27.9897C84.9766 29.5971 83.6995 30.8879 82.1091 30.8879Z" fill="#C4C4C4"/>
<path d="M93.1449 6.38751C91.5545 4.85319 81.1931 4.51223 80.3979 4.51223C79.6027 4.51223 79.6027 5.70559 79.6027 5.70559V20.586C79.2894 20.6835 78.9762 20.8296 78.687 20.9757V0.323303H76.7593V21.6576H71.7232V18.6377H13.169V21.682H2.73522V26.2849H1.14486V25.8466H0.132812V28.1846H1.14486V27.3078H5.48221V26.5041H17.2894C17.9641 23.7034 20.4461 21.6333 23.4099 21.6333C26.3738 21.6333 28.8557 23.7034 29.5304 26.5041H75.8678C75.9641 26.0657 76.1087 25.6761 76.3015 25.2864C76.3738 25.1159 76.4702 24.9454 76.5666 24.775C76.5906 24.7506 76.6147 24.7019 76.6388 24.6775C76.7352 24.5314 76.8316 24.3853 76.928 24.2392L76.9521 24.2148C77.1931 23.8739 77.4581 23.5816 77.7473 23.2894C78.8798 22.2178 80.422 21.5602 82.0846 21.5602C85.6027 21.5602 88.4702 24.4584 88.4702 28.0141V29.8894C88.4702 29.8894 94.6147 29.8894 95.3376 29.8894C96.0605 29.8894 96.1328 28.1846 96.1328 28.1846V22.6318C96.1328 22.6318 96.1328 20.2938 96.1328 18.0775C96.1328 15.8613 94.7352 7.92183 93.1449 6.38751ZM93.8437 14.6923C93.8437 14.6923 85.4099 14.1322 84.3015 13.8886C83.1931 13.6451 83.2894 12.3787 83.2894 12.3787V8.79858C83.2894 8.79858 83.0726 7.58087 84.181 7.58087C84.181 7.58087 90.7593 7.58087 91.9159 7.58087C93.0726 7.58087 93.3376 8.53068 93.3376 8.53068C93.3376 8.53068 94.3015 11.9403 94.6388 13.3528C95.0003 14.7654 93.8437 14.6923 93.8437 14.6923Z" fill="#C4C4C4"/>
<path d="M23.4822 22.6561C20.5665 22.6561 18.2051 25.0429 18.2051 27.9897C18.2051 30.9366 20.5665 33.3233 23.4822 33.3233C26.3979 33.3233 28.7593 30.9366 28.7593 27.9897C28.7593 25.0429 26.3979 22.6561 23.4822 22.6561ZM23.4822 30.8879C21.8918 30.8879 20.6147 29.5971 20.6147 27.9897C20.6147 26.3823 21.8918 25.0916 23.4822 25.0916C25.0726 25.0916 26.3497 26.3823 26.3497 27.9897C26.3738 29.5971 25.0726 30.8879 23.4822 30.8879Z" fill="#C4C4C4"/>
</g>
<defs>
<clipPath id="clip0">
<rect x="0.132812" y="0.323303" width="96" height="33" rx="3" fill="white"/>
</clipPath>
</defs>
</svg>
