<svg width="30" height="31" viewBox="0 0 30 31" fill="none" xmlns="http://www.w3.org/2000/svg">
<path d="M15 0.67424C6.71572 0.67424 0 7.38996 0 15.6742C0 23.9585 6.71572 30.6742 15 30.6742C23.2843 30.6742 30 23.9585 30 15.6742C30 7.38996 23.2843 0.67424 15 0.67424ZM23.8027 21.1552L21.2152 21.1907C21.2152 21.1907 20.6586 21.3012 19.9283 20.7959C18.9592 20.1308 18.0474 18.4038 17.3369 18.6248C16.6264 18.8459 16.6382 20.4012 16.6382 20.4012C16.6405 20.5836 16.5845 20.762 16.4784 20.9104C16.329 21.0384 16.1448 21.1188 15.9495 21.1413H14.8027C14.8027 21.1413 12.237 21.2933 9.9968 18.9525C7.53363 16.4104 5.36455 11.3321 5.36455 11.3321C5.36455 11.3321 5.23682 11.0375 5.37639 10.8387C5.49703 10.6668 5.79457 10.6483 5.9448 10.6413C6.59244 10.611 8.53822 10.6236 8.53822 10.6236C8.701 10.6195 8.81039 10.6281 9.01189 10.7163C9.1851 10.8019 9.31646 10.9294 9.40072 11.1347C9.70008 11.8802 10.0475 12.6054 10.4409 13.3058C11.5975 15.3052 12.1363 15.7413 12.529 15.5282C13.0995 15.2163 12.9238 12.7038 12.9238 12.7038C12.9238 12.7038 12.9238 11.79 12.6356 11.3854C12.4187 11.132 12.1128 10.9716 11.781 10.9374C11.6251 10.9157 11.8817 10.5545 12.2133 10.3927C12.7106 10.1479 13.5909 10.1479 14.629 10.1479C15.0859 10.1307 15.5429 10.1772 15.987 10.2861C16.9422 10.517 16.6185 11.4052 16.6185 13.5407C16.6185 14.2236 16.4942 15.1867 16.9876 15.5143C17.2008 15.6505 17.7179 15.5341 19.0165 13.3314C19.4309 12.6025 19.7904 11.8439 20.0922 11.0617C20.1503 10.9373 20.2385 10.8295 20.3488 10.7479C20.4654 10.6898 20.5965 10.6672 20.7258 10.6827L23.6389 10.663C23.6389 10.663 24.5133 10.5584 24.6554 10.955C24.7975 11.3518 24.3277 12.3366 23.1376 13.9155C21.1837 16.5208 20.9665 16.284 22.5889 17.782C24.1383 19.2208 24.46 19.9215 24.5133 20.0083C25.1566 21.0703 23.8027 21.1552 23.8027 21.1552Z" fill="#41779F"/>
</svg>
