<svg width="22" height="23" viewBox="0 0 22 23" fill="none" xmlns="http://www.w3.org/2000/svg">
<path d="M21.7034 22.632C21.8072 22.516 21.8868 22.3787 21.9374 22.2289C21.9879 22.079 22.0082 21.9199 21.997 21.7614L20.8973 6.81145C20.8759 6.52205 20.7507 6.25181 20.5468 6.05494C20.3428 5.85807 20.0752 5.74914 19.7976 5.75H16.4986C16.4986 4.225 15.9193 2.76247 14.8881 1.68414C13.857 0.605802 12.4584 0 11.0001 0C9.54186 0 8.14331 0.605802 7.11215 1.68414C6.081 2.76247 5.5017 4.225 5.5017 5.75H2.20264C1.92508 5.74914 1.65747 5.85807 1.45351 6.05494C1.24955 6.25181 1.12432 6.52205 1.10295 6.81145L0.00326533 21.7614C-0.00842575 21.9197 0.0113543 22.0789 0.0613597 22.2288C0.111365 22.3787 0.190512 22.5161 0.293817 22.6325C0.397121 22.7488 0.522345 22.8416 0.661601 22.9048C0.800858 22.9681 0.951129 23.0005 1.10295 23H20.8973C21.0487 23 21.1984 22.9673 21.3371 22.9039C21.4758 22.8406 21.6005 22.748 21.7034 22.632ZM11.0001 2.3C11.8751 2.3 12.7142 2.66348 13.3329 3.31048C13.9516 3.95748 14.2992 4.835 14.2992 5.75H7.70107C7.70107 4.835 8.04865 3.95748 8.66734 3.31048C9.28604 2.66348 10.1252 2.3 11.0001 2.3ZM2.29061 20.7L3.22095 8.05H5.5017V10.35C5.5017 10.655 5.61756 10.9475 5.82379 11.1632C6.03002 11.3788 6.30973 11.5 6.60139 11.5C6.89304 11.5 7.17275 11.3788 7.37898 11.1632C7.58521 10.9475 7.70107 10.655 7.70107 10.35V8.05H14.2992V10.35C14.2992 10.655 14.4151 10.9475 14.6213 11.1632C14.8275 11.3788 15.1072 11.5 15.3989 11.5C15.6905 11.5 15.9702 11.3788 16.1765 11.1632C16.3827 10.9475 16.4986 10.655 16.4986 10.35V8.05H18.7793L19.7097 20.7H2.29061Z" fill="#5C5959"/>
</svg>
