<svg width="29" height="25" viewBox="0 0 29 25" fill="none" xmlns="http://www.w3.org/2000/svg">
<path d="M17.8462 12.8682C17.8462 15.909 20.348 18.3829 23.4231 18.3829C24.9127 18.3829 26.3132 17.8093 27.3666 16.7677C28.4199 15.7262 29 14.3413 29 12.8682C29 12.6683 28.945 12.4722 28.8409 12.3008L25.341 6.53206C25.743 6.36537 26.0256 5.97265 26.0256 5.51456C26.0256 4.90544 25.5262 4.41162 24.9103 4.41162H15.6154V1.10294C15.6154 0.493824 15.1161 0 14.5 0C13.8841 0 13.3846 0.493824 13.3846 1.10294V4.41162H4.08974C3.47383 4.41162 2.97436 4.90544 2.97436 5.51456C2.97436 5.97265 3.25685 6.36537 3.65898 6.53206L0.159054 12.3008C0.0548769 12.4722 0 12.6684 0 12.8682C0 15.909 2.50181 18.3829 5.57692 18.3829C8.65204 18.3829 11.1538 15.909 11.1538 12.8682C11.1538 12.6684 11.099 12.4722 10.9949 12.3008L7.54684 6.6175H13.3846V22.7941H4.83333C4.21742 22.7941 3.71795 23.2879 3.71795 23.8971C3.71795 24.5062 4.21742 25 4.83333 25H24.1667C24.7827 25 25.2821 24.5062 25.2821 23.8971C25.2821 23.2879 24.7827 22.7941 24.1667 22.7941H15.6154V6.6175H21.4532L18.0052 12.3008C17.9011 12.4722 17.8462 12.6684 17.8462 12.8682ZM5.57692 16.1771C4.12298 16.1771 2.88342 15.2549 2.42291 13.9712H8.73093C8.27058 15.2548 7.03101 16.1771 5.57692 16.1771ZM8.06854 11.7653H3.0853L5.57692 7.65846L8.06854 11.7653ZM23.4231 7.65846L25.9147 11.7653H20.9313L23.4231 7.65846ZM26.5771 13.9712C26.1167 15.2548 24.8772 16.1771 23.4231 16.1771C21.9691 16.1771 20.7294 15.2549 20.2689 13.9712H26.5771Z" fill="#ADA7A7"/>
</svg>
