<svg width="69" height="17" viewBox="0 0 69 17" fill="none" xmlns="http://www.w3.org/2000/svg">
<path d="M34.6519 14.686H32.1333V16.5149H34.6519V14.686Z" fill="black"/>
<path d="M39.5836 16.6717C43.1786 16.6717 43.5444 14.9472 43.5444 14.1634V14.1425H41.1512C41.0989 14.362 40.869 15.1772 39.291 15.1772H39.2596C37.9115 15.1772 37.4726 14.4247 37.4726 13.6722V13.599C37.4726 12.8884 37.901 12.209 39.2596 12.209H39.291C40.8899 12.209 41.0989 13.0033 41.1512 13.2228H43.5444V13.1915C43.5444 12.439 43.1055 10.7354 39.594 10.7354H38.9984C35.79 10.7354 35.0898 12.3136 35.0898 13.5677V13.7767C35.0898 15.0309 35.8004 16.6717 39.0088 16.6717H39.5836Z" fill="black"/>
<path d="M49.1329 14.0171C49.1329 14.686 48.3282 15.3548 47.0846 15.3548C46.2903 15.3548 46.0604 15.0204 46.0604 14.7173V14.7069C46.0604 14.3829 46.3112 14.2784 46.9069 14.1843L49.1329 13.8394V14.0171ZM49.1956 15.7415C49.2792 16.2745 49.6346 16.5149 50.0839 16.5149H51.9755V14.9891H51.6725C51.4321 14.9891 51.3798 14.8741 51.3798 14.7069V12.5539C51.3798 11.7387 51.1708 10.7354 47.9102 10.7354H47.3354C44.2002 10.7354 43.9807 11.8955 43.9807 12.6375V12.6584H46.144C46.1754 12.4703 46.2276 12.0314 47.6176 12.0314H47.6698C49.0389 12.0314 49.1329 12.2822 49.1329 12.4912C49.1329 12.6689 49.0389 12.7525 48.7776 12.7839L46.2067 13.0242C44.5242 13.181 43.8449 13.6722 43.8449 14.7069V14.78C43.8449 15.7415 44.566 16.6194 46.4575 16.6194H46.5934C48.2446 16.6194 48.9553 16.0446 49.1956 15.7415Z" fill="black"/>
<path d="M52.4348 16.5149H54.8175L58.3499 12.972V16.5149H60.6804V10.8922H58.2976L54.7653 14.4351V10.8922H52.4348V16.5149ZM56.7614 10.4323C58.4857 10.4323 58.9769 9.29317 58.9769 8.76016V8.73926H57.2421C57.2421 8.86467 57.1376 9.25136 56.6046 9.25136C56.0612 9.25136 55.9567 8.86467 55.9567 8.73926H54.1801V8.76016C54.1801 9.29317 54.5249 10.4323 56.427 10.4323H56.7614Z" fill="black"/>
<path d="M63.7524 16.5149H66.0829V12.439H68.4343V10.8922H61.401V12.439H63.7524V16.5149Z" fill="black"/>
<path d="M32.1976 5.89039H34.5267V1.73623H36.8766V0.159776H29.8477V1.73623H32.1976V5.89039Z" fill="black"/>
<path d="M41.9329 6.05017C45.4004 6.05017 45.954 4.40981 45.954 3.089V2.89726C45.954 1.59776 45.3586 0 41.9329 0H41.1914C37.9328 0 37.1599 1.57645 37.1599 2.89726V3.089C37.1599 4.40981 37.9432 6.05017 41.2018 6.05017H41.9329ZM41.5674 4.50567C39.9799 4.50567 39.5412 3.69614 39.5412 3.02509V2.97183C39.5412 2.24751 39.9799 1.52319 41.5674 1.52319H41.5778C43.1445 1.52319 43.5936 2.25816 43.5936 2.97183V3.02509C43.5936 3.69614 43.1549 4.50567 41.5674 4.50567Z" fill="black"/>
<path d="M46.5794 5.89039H48.9085V1.73623H51.8537V5.89039H54.1828V0.159776H46.5794V5.89039Z" fill="black"/>
<path d="M5.44806 4.20353V5.78142H7.798V0.269043H2.76091C1.11701 0.269043 0.168605 0.965775 0.168605 2.16456V2.26702C0.168605 3.19941 0.7798 3.81418 1.88627 4.02935L0 5.78142H2.68715L4.36266 4.20353H5.44806ZM5.44806 1.62152V2.79982H3.40372C2.67661 2.79982 2.51854 2.50268 2.51854 2.23629V2.1953C2.51854 1.93915 2.67661 1.62152 3.39318 1.62152H5.44806Z" fill="black"/>
<path d="M10.0835 2.41992H28.6374V4.3022H10.0835V2.41992Z" fill="black"/>
</svg>
