<svg width="24" height="21" viewBox="0 0 24 21" fill="none" xmlns="http://www.w3.org/2000/svg">
<path d="M23.3099 5.56065C22.9724 4.29687 22.3176 3.14329 21.4093 2.21242C20.501 1.28154 19.3702 0.605132 18.1271 0.249151C17.0791 -0.0420212 15.978 -0.0785467 14.9134 0.142541C13.8488 0.363629 12.8506 0.836096 12 1.52157C11.1494 0.836096 10.1512 0.363629 9.08659 0.142541C8.02198 -0.0785467 6.92093 -0.0420212 5.87287 0.249151C4.62983 0.605132 3.49902 1.28154 2.59071 2.21242C1.6824 3.14329 1.02759 4.29687 0.690141 5.56065C0.400334 6.76858 0.44248 8.0339 0.812006 9.21927C1.18153 10.4046 1.86432 11.4648 2.78627 12.2846L11.2283 20.6663C11.4436 20.8802 11.7331 21 12.0346 21C12.336 21 12.6255 20.8802 12.8408 20.6663L21.2137 12.2846C22.1357 11.4648 22.8185 10.4046 23.188 9.21927C23.5575 8.0339 23.5997 6.76858 23.3099 5.56065ZM19.6359 10.6153L12 18.2032L4.36412 10.6153C3.73385 10.0799 3.2647 9.3758 3.01015 8.58322C2.75561 7.79064 2.72592 6.94151 2.92447 6.13265C3.16511 5.26932 3.61941 4.48262 4.24427 3.84724C4.86912 3.21185 5.64381 2.74884 6.49479 2.50216C6.86932 2.39218 7.25663 2.3333 7.64651 2.32705C8.95879 2.3674 10.2016 2.93424 11.1017 3.90299C11.3169 4.11688 11.6064 4.23669 11.9079 4.23669C12.2093 4.23669 12.4988 4.11688 12.7141 3.90299C13.2968 3.25736 14.0427 2.78556 14.8709 2.53865C15.6992 2.29174 16.5783 2.27912 17.4131 2.50216C18.2641 2.74884 19.0387 3.21185 19.6636 3.84724C20.2885 4.48262 20.7428 5.26932 20.9834 6.13265C21.1927 6.93292 21.1774 7.7765 20.9393 8.56845C20.7013 9.36041 20.2498 10.0693 19.6359 10.6153Z" fill="#ADA7A7"/>
</svg>
