<svg width="55" height="55" viewBox="0 0 55 55" fill="none" xmlns="http://www.w3.org/2000/svg">
<rect x="0.259155" y="0.279541" width="54.3996" height="54.3996" rx="10" fill="#FEF7F0"/>
<path fill-rule="evenodd" clip-rule="evenodd" d="M38.7779 24.6371H41.6202C41.6202 18.384 36.504 13.2678 30.2509 13.2678V16.1101C34.9407 16.1101 38.7779 19.9473 38.7779 24.6371ZM35.7934 29.0427C34.6565 27.9058 32.5247 27.9058 31.2457 29.0427L29.5403 30.7481C29.3982 30.8902 29.2561 30.8902 29.114 30.8902C28.4034 30.8902 26.9822 30.3217 25.8453 29.1848C24.1399 27.1952 23.8557 25.6319 24.282 25.2056L25.9874 23.5002C27.2665 22.2211 27.2665 20.2315 25.9874 18.9525L20.8713 14.2627C19.7343 13.1257 17.6026 13.1257 16.3236 14.2627L15.1866 15.3996C11.2074 19.3788 13.3391 27.9058 20.1607 34.7273C24.4242 38.9908 29.8245 41.691 34.088 41.691C36.3619 41.691 38.2094 40.9804 39.4884 39.7014L40.7675 38.4223C42.0465 37.1433 42.0465 35.1537 40.7675 33.8746L35.7934 29.0427ZM38.6357 36.4327L37.3567 37.7118C36.504 38.5645 35.3671 38.8487 33.9459 38.8487C30.393 38.8487 25.8453 36.4327 22.0082 32.7377C16.7499 27.1952 14.4761 20.2315 17.1763 17.3892L18.4553 16.1102H18.7395C18.7395 16.1102 18.8816 16.1102 18.8816 16.2523L23.8557 21.2263C23.9978 21.3685 23.9978 21.5106 23.8557 21.6527L22.1503 23.216C20.4449 24.9213 21.1555 28.3321 23.8557 31.0323C26.4138 33.5904 29.9667 34.301 31.672 32.7377L33.3774 31.0323C33.5196 30.8902 33.6617 30.8902 33.8038 31.0323L38.7778 36.0064C38.7778 36.1485 38.7778 36.2906 38.6357 36.4327ZM35.9355 24.6371H33.0932C33.0932 23.0738 31.8142 21.7948 30.2509 21.7948V18.9525C33.3775 18.9525 35.9355 21.5105 35.9355 24.6371Z" fill="#FB8B24"/>
</svg>
