<svg width="17" height="24" viewBox="0 0 17 24" fill="none" xmlns="http://www.w3.org/2000/svg">
<path fill-rule="evenodd" clip-rule="evenodd" d="M17 18.7452C17 17.9496 16.6806 17.1864 16.1111 16.6248C15.8671 16.3836 15.5696 16.0896 15.283 15.8064C14.3723 14.9064 13.1361 14.4 11.8478 14.4C10.0251 14.4 6.97486 14.4 5.15221 14.4C3.86386 14.4 2.62771 14.9064 1.717 15.8064C1.43043 16.0896 1.13293 16.3836 0.888857 16.6248C0.319357 17.1864 0 17.9496 0 18.7452V21C0 21.7956 0.319357 22.5588 0.888857 23.1216C1.45836 23.6844 2.23064 24 3.03571 24H13.9643C14.7694 24 15.5416 23.6844 16.1111 23.1216C16.6806 22.5588 17 21.7956 17 21C17 20.2188 17 19.3476 17 18.7452ZM14.5714 18.7452V21C14.5714 21.1596 14.5071 21.312 14.3941 21.4248C14.28 21.5364 14.1258 21.6 13.9643 21.6C11.1654 21.6 5.83464 21.6 3.03571 21.6C2.87421 21.6 2.72 21.5364 2.60586 21.4248C2.49293 21.312 2.42857 21.1596 2.42857 21C2.42857 20.2188 2.42857 19.3476 2.42857 18.7452C2.42857 18.5868 2.49293 18.4344 2.60586 18.3216C2.84993 18.0804 3.14743 17.7864 3.434 17.5032C3.88936 17.0532 4.50743 16.8 5.15221 16.8H11.8478C12.4926 16.8 13.1106 17.0532 13.566 17.5032L14.3941 18.3216C14.5071 18.4344 14.5714 18.5868 14.5714 18.7452ZM13.3571 4.8C13.3571 2.1492 11.1824 0 8.5 0C5.81764 0 3.64286 2.1492 3.64286 4.8V7.2C3.64286 9.8508 5.81764 12 8.5 12C11.1824 12 13.3571 9.8508 13.3571 7.2V4.8ZM8.5 2.4C7.15821 2.4 6.07143 3.4752 6.07143 4.8V7.2C6.07143 8.526 7.15821 9.6 8.5 9.6C9.84179 9.6 10.9286 8.526 10.9286 7.2V4.8C10.9286 3.4752 9.84179 2.4 8.5 2.4Z" fill="#ADA7A7"/>
</svg>
