<svg width="13" height="13" viewBox="0 0 13 13" fill="none" xmlns="http://www.w3.org/2000/svg">
<path d="M6.5 0.000976562C2.90956 0.000976562 0 2.91139 0 6.49969C0 10.0901 2.90956 12.9993 6.5 12.9993C10.0904 12.9993 13 10.0906 13 6.49969C13 2.91139 10.09 0.000976562 6.5 0.000976562ZM5.52399 10.3737C5.37793 10.518 5.14295 10.518 4.99861 10.3737L4.8822 10.2572L4.75547 10.1314L4.21162 9.58752L4.20303 9.57506L1.70845 7.06158C1.56325 6.91724 1.56325 6.68054 1.70845 6.53749L2.49458 5.75136C2.64064 5.60573 2.8739 5.60573 3.0191 5.75136L5.26366 8.01182L9.98047 3.29415C10.1248 3.14938 10.3598 3.14938 10.5041 3.29415L11.2903 4.08114C11.4355 4.22548 11.4355 4.46132 11.2903 4.60566L5.52399 10.3737Z" fill="#5EC54E"/>
</svg>
