<svg width="16" height="16" viewBox="0 0 16 16" fill="none" xmlns="http://www.w3.org/2000/svg">
<path d="M14.9801 7.15394L14.9794 7.15468L12.4171 9.77823L12.3514 9.84552L12.3043 9.92695C12.2299 10.0556 12.1908 10.2016 12.1908 10.3502C12.1908 10.4286 12.2017 10.5063 12.2229 10.5811L12.7647 14.1269L12.7647 14.1269L12.766 14.1351C12.795 14.3115 12.7737 14.4925 12.7045 14.6575C12.6353 14.8224 12.521 14.9647 12.3745 15.0681C12.228 15.1714 12.0554 15.2315 11.8762 15.2414C11.6973 15.2514 11.5192 15.2109 11.3623 15.1247C11.3621 15.1246 11.3619 15.1244 11.3616 15.1243L8.37692 13.4697L8.36809 13.4648L8.35914 13.4601C8.23745 13.3969 8.10234 13.3639 7.96523 13.3639C7.82813 13.3639 7.69302 13.3969 7.57133 13.4601L7.56237 13.4648L7.55355 13.4697L4.56691 15.1254L4.5669 15.1254L4.56243 15.1279C4.40615 15.2159 4.228 15.2579 4.0487 15.2488L4.01076 15.9978L4.04869 15.2488C3.8694 15.2397 3.69643 15.18 3.5499 15.0766C3.40337 14.9733 3.28933 14.8306 3.22092 14.6652C3.15252 14.4999 3.13251 14.3185 3.16321 14.1423L3.16325 14.1423L3.16454 14.1344L3.74849 10.5556C3.76796 10.4823 3.7779 10.4065 3.7779 10.3302C3.7779 10.2073 3.75206 10.0856 3.70205 9.9733L3.64764 9.85104L3.5543 9.75514L1.02434 7.15587C0.90081 7.02882 0.814533 6.87049 0.774767 6.69809C0.735062 6.52595 0.743218 6.34626 0.798359 6.1784C0.853465 6.01274 0.953461 5.86545 1.08737 5.75293C1.22148 5.64024 1.38435 5.56685 1.55786 5.54102L1.55787 5.54108L1.56671 5.53965L4.99375 4.98775L5.03193 4.9816L5.06929 4.97155C5.18599 4.94016 5.29499 4.88502 5.38944 4.80954L5.38945 4.80953C5.4839 4.73405 5.56178 4.63985 5.61816 4.5328L5.62602 4.51787L5.63321 4.5026L7.13854 1.30314L7.13859 1.30317L7.14239 1.29483C7.21662 1.13191 7.33644 0.993754 7.48754 0.897059C7.63864 0.800358 7.81457 0.749266 7.99416 0.750013L7.99683 0.750014C8.17922 0.750119 8.35758 0.803208 8.51018 0.902729C8.66278 1.00225 8.78299 1.14386 8.8563 1.31024L8.86004 1.31874L8.86399 1.32714L10.3659 4.5194C10.4158 4.62952 10.4883 4.72793 10.5788 4.80823L10.5788 4.80826C10.6747 4.89339 10.7883 4.95606 10.9115 4.9917L10.9581 5.00521L11.0061 5.01258L14.4411 5.54049L14.4411 5.54052L14.4475 5.54144C14.6188 5.56627 14.7796 5.63864 14.9116 5.75021C15.0436 5.86177 15.1414 6.00804 15.1942 6.17229L15.1965 6.17939L15.1989 6.18644C15.2557 6.3521 15.2654 6.53024 15.2268 6.70103C15.1882 6.87182 15.1028 7.02864 14.9801 7.15394Z" stroke="#C6BDBD" stroke-width="1.5"/>
</svg>
