<svg width="14" height="19" viewBox="0 0 14 19" fill="none" xmlns="http://www.w3.org/2000/svg">
<path d="M6.75244 0.942627C3.02909 0.942627 0 3.97172 0 7.69795C0.0418569 14.0323 6.22417 18.0537 6.48734 18.2218C6.56817 18.2736 6.66006 18.2993 6.75244 18.2993C6.84481 18.2993 6.9367 18.2736 7.01753 18.2218C7.2807 18.0537 13.463 14.0323 13.5049 7.69482C13.5049 3.97172 10.4758 0.942627 6.75244 0.942627ZM6.75244 10.1581C5.39425 10.1581 4.28913 9.05301 4.28913 7.69482C4.28913 6.33664 5.39425 5.23152 6.75244 5.23152C8.11062 5.23152 9.21574 6.33664 9.21574 7.69482C9.21574 9.05301 8.11062 10.1581 6.75244 10.1581Z" fill="#FB8B24"/>
</svg>
