<svg width="19" height="20" viewBox="0 0 19 20" fill="none" xmlns="http://www.w3.org/2000/svg">
<path fill-rule="evenodd" clip-rule="evenodd" d="M3.80014 0H0.950036C0.698071 0 0.456425 0.100093 0.278259 0.278259C0.100093 0.456425 0 0.698071 0 0.950036C0 1.202 0.100093 1.44365 0.278259 1.62181C0.456425 1.79998 0.698071 1.90007 0.950036 1.90007H2.85011V15.2006C2.85011 15.4525 2.9502 15.6942 3.12837 15.8724C3.30653 16.0505 3.54818 16.1506 3.80014 16.1506H15.2006C15.4525 16.1506 15.6942 16.0505 15.8724 15.8724C16.0505 15.6942 16.1506 15.4525 16.1506 15.2006C16.1506 14.9486 16.0505 14.707 15.8724 14.5288C15.6942 14.3506 15.4525 14.2505 15.2006 14.2505H4.75018V12.3505H16.1506C16.3499 12.3503 16.5441 12.2875 16.7058 12.1709C16.8674 12.0542 16.9883 11.8897 17.0512 11.7006L18.9513 6.00043C18.9989 5.85768 19.0118 5.70569 18.9891 5.55695C18.9664 5.40822 18.9088 5.267 18.8208 5.14492C18.7329 5.02284 18.6172 4.9234 18.4833 4.85477C18.3494 4.78614 18.2011 4.75029 18.0507 4.75018H4.75018V0.950036C4.75018 0.698071 4.65009 0.456425 4.47192 0.278259C4.29375 0.100093 4.05211 0 3.80014 0ZM16.732 6.65025L15.4656 10.4504H4.75018V6.65025H16.732ZM4.27518 19.9507C5.06221 19.9507 5.70023 19.3127 5.70023 18.5257C5.70023 17.7386 5.06221 17.1006 4.27518 17.1006C3.48814 17.1006 2.85012 17.7386 2.85012 18.5257C2.85012 19.3127 3.48814 19.9507 4.27518 19.9507ZM15.2006 18.5257C15.2006 19.3127 14.5626 19.9507 13.7755 19.9507C12.9885 19.9507 12.3505 19.3127 12.3505 18.5257C12.3505 17.7386 12.9885 17.1006 13.7755 17.1006C14.5626 17.1006 15.2006 17.7386 15.2006 18.5257Z" fill="white"/>
</svg>
