<svg width="14" height="14" viewBox="0 0 14 14" fill="none" xmlns="http://www.w3.org/2000/svg">
<path fill-rule="evenodd" clip-rule="evenodd" d="M5.20762 0H8.04815C8.30962 0 8.52157 0.211958 8.52157 0.473422V12.7824C8.52157 13.0439 8.30962 13.2558 8.04815 13.2558H5.20762C4.94616 13.2558 4.7342 13.0439 4.7342 12.7824V0.473422C4.7342 0.211958 4.94616 0 5.20762 0ZM12.7824 3.78736H9.94184C9.68038 3.78736 9.46842 3.99932 9.46842 4.26079V12.7824C9.46842 13.0438 9.68038 13.2558 9.94184 13.2558H12.7824C13.0438 13.2558 13.2558 13.0438 13.2558 12.7824V4.26079C13.2558 3.99932 13.0438 3.78736 12.7824 3.78736ZM3.31395 7.57474H0.473422C0.211958 7.57474 0 7.7867 0 8.04817V12.7824C0 13.0438 0.211958 13.2558 0.473422 13.2558H3.31395C3.57542 13.2558 3.78738 13.0438 3.78738 12.7824V8.04817C3.78738 7.7867 3.57542 7.57474 3.31395 7.57474Z" fill="#ADA7A7"/>
</svg>
