<svg width="40" height="40" viewBox="0 0 40 40" fill="none" xmlns="http://www.w3.org/2000/svg">
<path fill-rule="evenodd" clip-rule="evenodd" d="M0 19.8335C0 8.90201 8.89279 0 19.8335 0C30.7742 0 39.667 8.90201 39.667 19.8335C39.667 30.765 30.7742 39.667 19.8335 39.667C8.89279 39.667 0 30.765 0 19.8335ZM2.76746 19.8335C2.76746 29.2429 10.4241 36.8995 19.8335 36.8995C29.2429 36.8995 36.8995 29.2429 36.8995 19.8335C36.8995 10.4241 29.2429 2.76746 19.8335 2.76746C10.4241 2.76746 2.76746 10.4241 2.76746 19.8335ZM21.0788 7.23233L24.2799 13.7174L31.4384 14.7414C31.955 14.8152 32.3885 15.1842 32.5546 15.6823C32.7206 16.1897 32.5823 16.734 32.204 17.1029L27.0197 22.1582L28.2466 29.289C28.3296 29.8148 28.1174 30.3314 27.6931 30.6451C27.4532 30.8203 27.1673 30.9126 26.8813 30.9126C26.6599 30.9126 26.4385 30.8665 26.2355 30.7558L19.8335 27.3887L13.4406 30.765C12.9702 31.0141 12.4075 30.9772 11.9831 30.6635C11.5495 30.3499 11.3374 29.8241 11.4296 29.3075L12.6565 22.1766L7.47214 17.1214C7.09392 16.7524 6.95555 16.1989 7.1216 15.7008C7.28764 15.2026 7.71199 14.8336 8.23781 14.7598L15.3963 13.7174L18.5973 7.23233C18.828 6.75263 19.3077 6.45744 19.8335 6.45744C20.3593 6.45744 20.839 6.75263 21.0788 7.23233ZM24.1692 21.9183C24.0954 21.4663 24.243 21.0051 24.5658 20.6914L28.2743 17.0937L23.1637 16.3557C22.7116 16.2912 22.3242 16.0052 22.1213 15.5993L19.8335 10.9684L17.5642 15.5993C17.3612 16.0052 16.9738 16.2912 16.5217 16.3557L11.4112 17.0937L15.1011 20.6914C15.424 21.0143 15.5716 21.4663 15.4978 21.9183L14.6214 27.0012L19.1877 24.6028C19.3907 24.5013 19.6121 24.446 19.8335 24.446C20.0549 24.446 20.2763 24.5013 20.4792 24.6028L25.0455 27.0012L24.1692 21.9183Z" fill="#FB8B24"/>
</svg>
