<svg width="33" height="41" viewBox="0 0 33 41" fill="none" xmlns="http://www.w3.org/2000/svg">
<path fill-rule="evenodd" clip-rule="evenodd" d="M32.8636 38.9669C32.8636 39.7462 32.2345 40.3753 31.4552 40.3753H1.40844C0.629104 40.3753 0 39.7462 0 38.9669V1.40844C0 0.629104 0.629104 0 1.40844 0H31.4552C32.2345 0 32.8636 0.629104 32.8636 1.40844V38.9669ZM30.0467 2.81688H2.81688V37.5584H30.0467V2.81688ZM25.8214 4.69484H7.04221C6.26287 4.69484 5.63376 5.32395 5.63376 6.10328V14.5539C5.63376 15.3333 6.26287 15.9624 7.04221 15.9624H25.8214C26.6008 15.9624 27.2299 15.3333 27.2299 14.5539V6.10328C27.2299 5.32395 26.6008 4.69484 25.8214 4.69484ZM24.413 13.1455H8.45065V7.51173H24.413V13.1455ZM12.676 20.6571H12.2065V20.1876C12.2065 19.4083 11.5774 18.7792 10.798 18.7792C10.0187 18.7792 9.38961 19.4083 9.38961 20.1876V20.6571H8.92013C8.14079 20.6571 7.51168 21.2862 7.51168 22.0656C7.51168 22.8449 8.14079 23.474 8.92013 23.474H9.38961V23.9435C9.38961 24.7228 10.0187 25.3519 10.798 25.3519C11.5774 25.3519 12.2065 24.7228 12.2065 23.9435V23.474H12.676C13.4553 23.474 14.0844 22.8449 14.0844 22.0656C14.0844 21.2862 13.4553 20.6571 12.676 20.6571ZM23.9435 20.6572H20.1877C19.4083 20.6572 18.7792 21.2863 18.7792 22.0656C18.7792 22.8449 19.4083 23.474 20.1877 23.474H23.9435C24.7228 23.474 25.3519 22.8449 25.3519 22.0656C25.3519 21.2863 24.7228 20.6572 23.9435 20.6572ZM11.1267 29.1359C11.6713 28.582 12.5633 28.582 13.1173 29.1359C13.6713 29.6805 13.6713 30.5726 13.1173 31.1265L12.7886 31.4552L13.1173 31.7838C13.6713 32.3284 13.6713 33.2204 13.1173 33.7744C12.845 34.0467 12.4788 34.1876 12.122 34.1876C11.7652 34.1876 11.399 34.0467 11.1267 33.7744L10.7981 33.4458L10.4694 33.7744C10.1971 34.0467 9.83092 34.1876 9.47412 34.1876C9.11731 34.1876 8.75112 34.0467 8.47882 33.7744C7.92483 33.2298 7.92483 32.3378 8.47882 31.7838L8.80746 31.4552L8.47882 31.1265C7.92483 30.5819 7.92483 29.6899 8.47882 29.1359C9.02342 28.582 9.91543 28.582 10.4694 29.1359L10.7981 29.4646L11.1267 29.1359ZM23.9435 28.1688H20.1877C19.4083 28.1688 18.7792 28.7979 18.7792 29.5773C18.7792 30.3566 19.4083 30.9857 20.1877 30.9857H23.9435C24.7228 30.9857 25.3519 30.3566 25.3519 29.5773C25.3519 28.7979 24.7228 28.1688 23.9435 28.1688ZM20.1877 31.9246H23.9435C24.7228 31.9246 25.3519 32.5537 25.3519 33.3331C25.3519 34.1124 24.7228 34.7415 23.9435 34.7415H20.1877C19.4083 34.7415 18.7792 34.1124 18.7792 33.3331C18.7792 32.5537 19.4083 31.9246 20.1877 31.9246Z" fill="#FB8B24"/>
</svg>
