<svg width="31" height="38" viewBox="0 0 31 38" fill="none" xmlns="http://www.w3.org/2000/svg">
<path d="M15.5034 0C10.8623 0 7.08917 3.76465 7.08917 8.39535V14.1395H3.1035C2.41265 14.1395 1.83694 14.6698 1.77494 15.3591L0.00353524 36.5684C-0.0230359 36.9395 0.100963 37.3019 0.34896 37.5758C0.596957 37.8498 0.960096 38 1.33209 38H29.6746C30.0466 38 30.4009 37.8409 30.6489 37.5758C30.8969 37.3107 31.0298 36.9395 30.9943 36.5684L29.2229 15.3591C29.1609 14.6698 28.5941 14.1395 27.8944 14.1395H23.9087V8.39535C23.9176 3.76465 20.1445 0 15.5034 0ZM9.74629 8.39535C9.74629 5.23163 12.3325 2.65116 15.5034 2.65116C18.6742 2.65116 21.2604 5.23163 21.2604 8.39535V14.1395H9.74629V8.39535ZM28.2309 35.3488H2.77579L2.84665 34.4651H28.1512L28.2309 35.3488ZM26.681 16.7907L27.9387 31.814H3.06807L4.32577 16.7907H26.681Z" fill="#FB8B24"/>
</svg>
