<svg width="45" height="39" viewBox="0 0 45 39" fill="none" xmlns="http://www.w3.org/2000/svg">
<path fill-rule="evenodd" clip-rule="evenodd" d="M14.0423 13.5222C14.9057 13.5222 15.6026 12.8253 15.6026 11.962V1.56026C15.6026 0.696916 14.9057 0 14.0423 0H1.56026C0.696916 0 0 0.696916 0 1.56026V11.962C0 12.8253 0.696916 13.5222 1.56026 13.5222H14.0423ZM3.12052 3.12052H6.24104V4.68078C6.24104 5.54412 6.93795 6.24104 7.8013 6.24104C8.66464 6.24104 9.36156 5.54412 9.36156 4.68078V3.12052H12.4821V10.4017H3.12052V3.12052ZM1.56026 35.3659H4.45194C5.09685 37.1758 6.81313 38.4864 8.84147 38.4864C10.8698 38.4864 12.5861 37.1758 13.231 35.3659H30.6851H32.5366C33.1815 37.1758 34.8978 38.4864 36.9261 38.4864C38.9545 38.4864 40.6708 37.1758 41.3157 35.3659H43.1672C44.0305 35.3659 44.7274 34.669 44.7274 33.8056V25.4842C44.7274 25.0682 44.561 24.6729 44.2698 24.3817L40.1091 20.221C39.8178 19.9297 39.4226 19.7633 39.0065 19.7633H32.2454V16.1227C32.2454 15.2593 31.5484 14.5624 30.6851 14.5624H1.56026C0.696916 14.5624 0 15.2593 0 16.1227V33.8056C0 34.669 0.696916 35.3659 1.56026 35.3659ZM36.9261 35.3659C36.0628 35.3659 35.3659 34.669 35.3659 33.8056C35.3659 32.9423 36.0628 32.2454 36.9261 32.2454C37.7895 32.2454 38.4864 32.9423 38.4864 33.8056C38.4864 34.669 37.7895 35.3659 36.9261 35.3659ZM32.2454 22.8838H38.3616L41.6069 26.1292V32.2454H41.3157C40.6708 30.4355 38.9545 29.1248 36.9261 29.1248C34.8978 29.1248 33.1815 30.4355 32.5366 32.2454H32.2454V22.8838ZM8.84147 35.3659C7.97813 35.3659 7.28121 34.669 7.28121 33.8056C7.28121 32.9423 7.97813 32.2454 8.84147 32.2454C9.70481 32.2454 10.4017 32.9423 10.4017 33.8056C10.4017 34.669 9.70481 35.3659 8.84147 35.3659ZM3.12052 17.6829H29.1248V21.3236V32.2454H13.231C12.5861 30.4355 10.8698 29.1248 8.84147 29.1248C6.81313 29.1248 5.09685 30.4355 4.45194 32.2454H3.12052V17.6829ZM16.6428 1.56026C16.6428 0.696916 17.3397 0 18.203 0H30.6851C31.5484 0 32.2454 0.696916 32.2454 1.56026V11.962C32.2454 12.8253 31.5484 13.5222 30.6851 13.5222H18.203C17.3397 13.5222 16.6428 12.8253 16.6428 11.962V1.56026ZM19.7633 10.4017H29.1248V3.12052H26.0043V4.68078C26.0043 5.54412 25.3074 6.24104 24.4441 6.24104C23.5807 6.24104 22.8838 5.54412 22.8838 4.68078V3.12052H19.7633V10.4017Z" fill="#FB8B24"/>
</svg>
