<svg width="25" height="5" viewBox="0 0 25 5" fill="none" xmlns="http://www.w3.org/2000/svg">
<path fill-rule="evenodd" clip-rule="evenodd" d="M5 2.5C5 3.88071 3.88074 5 2.5 5C1.11926 5 0 3.88071 0 2.5C0 1.11929 1.11926 0 2.5 0C3.88074 0 5 1.11929 5 2.5ZM15 2.5C15 3.88071 13.8807 5 12.5 5C11.1193 5 10 3.88071 10 2.5C10 1.11929 11.1193 0 12.5 0C13.8807 0 15 1.11929 15 2.5ZM22.5 5C23.8807 5 25 3.88071 25 2.5C25 1.11929 23.8807 0 22.5 0C21.1193 0 20 1.11929 20 2.5C20 3.88071 21.1193 5 22.5 5Z" fill="white"/>
</svg>
