<svg width="20" height="20" viewBox="0 0 20 20" fill="none" xmlns="http://www.w3.org/2000/svg">
<path d="M14.2601 13.0573C15.1987 11.7755 15.7601 10.2011 15.7601 8.49436C15.7601 4.22183 12.2839 0.745575 8.01139 0.745575C3.73889 0.745575 0.262695 4.22183 0.262695 8.49436C0.262695 12.7669 3.73893 16.2431 8.01143 16.2431C9.71819 16.2431 11.2927 15.6816 12.5745 14.743L17.6508 19.8194L19.3365 18.1337C19.3365 18.1337 14.2601 13.0573 14.2601 13.0573ZM8.01143 13.8589C5.05326 13.8589 2.64694 11.4525 2.64694 8.49436C2.64694 5.53617 5.05326 3.12983 8.01143 3.12983C10.9696 3.12983 13.3759 5.53617 13.3759 8.49436C13.3759 11.4525 10.9696 13.8589 8.01143 13.8589Z" fill="#C8C4C4"/>
</svg>
