<svg width="97" height="17" viewBox="0 0 97 17" fill="none" xmlns="http://www.w3.org/2000/svg">
<path d="M15.7984 8.10847L15.7977 8.1092L13.2354 10.7328L13.1697 10.8L13.1227 10.8815C13.0483 11.0101 13.0091 11.1561 13.0091 11.3048C13.0091 11.3832 13.02 11.4608 13.0412 11.5356L13.5831 15.0814L13.5831 15.0815L13.5844 15.0896C13.6133 15.266 13.592 15.4471 13.5228 15.612C13.4536 15.777 13.3393 15.9193 13.1929 16.0226C13.0464 16.1259 12.8737 16.186 12.6945 16.196C12.5156 16.2059 12.3376 16.1654 12.1807 16.0792C12.1805 16.0791 12.1802 16.079 12.18 16.0788L9.19528 14.4242L9.18645 14.4193L9.1775 14.4146C9.05581 14.3514 8.9207 14.3184 8.78359 14.3184C8.64649 14.3184 8.51137 14.3514 8.38968 14.4146L8.38073 14.4193L8.37191 14.4242L5.38527 16.0799L5.38526 16.0799L5.38079 16.0824C5.22451 16.1704 5.04636 16.2124 4.86706 16.2033L4.82912 16.9524L4.86705 16.2033C4.68775 16.1942 4.51479 16.1345 4.36826 16.0311C4.22173 15.9278 4.10769 15.7851 4.03928 15.6197C3.97087 15.4544 3.95087 15.2731 3.98156 15.0968L3.98161 15.0968L3.9829 15.0889L4.56685 11.5101C4.58632 11.4368 4.59626 11.3611 4.59626 11.2848C4.59626 11.1618 4.57042 11.0402 4.52041 10.9278L4.466 10.8056L4.37266 10.7097L1.8427 8.1104C1.71917 7.98335 1.63289 7.82502 1.59313 7.65262C1.55342 7.48048 1.56158 7.30079 1.61672 7.13293C1.67182 6.96727 1.77182 6.81998 1.90573 6.70746C2.03984 6.59476 2.20271 6.52138 2.37622 6.49555L2.37623 6.49561L2.38507 6.49418L5.81211 5.94228L5.85029 5.93613L5.88765 5.92608C6.00435 5.89469 6.11335 5.83955 6.2078 5.76407L6.20781 5.76406C6.30226 5.68858 6.38014 5.59438 6.43652 5.48733L6.44438 5.4724L6.45157 5.45713L7.9569 2.25767L7.95695 2.2577L7.96075 2.24936C8.03498 2.08644 8.1548 1.94828 8.30589 1.85159C8.457 1.75489 8.63293 1.70379 8.81252 1.70454L8.81519 1.70454C8.99758 1.70465 9.17594 1.75774 9.32854 1.85726C9.48113 1.95677 9.60135 2.09839 9.67466 2.26477L9.6784 2.27327L9.68235 2.28167L11.1843 5.47393C11.2342 5.58405 11.3067 5.68246 11.3971 5.76276L11.3972 5.76279C11.493 5.84792 11.6067 5.91058 11.7298 5.94623L11.7765 5.95973L11.8245 5.96711L15.2595 6.49502L15.2595 6.49505L15.2658 6.49597C15.4371 6.5208 15.5979 6.59317 15.7299 6.70474C15.8619 6.8163 15.9598 6.96257 16.0125 7.12682L16.0148 7.13392L16.0172 7.14097C16.0741 7.30662 16.0837 7.48477 16.0451 7.65556C16.0065 7.82635 15.9211 7.98317 15.7984 8.10847Z" stroke="#C6BDBD" stroke-width="1.5"/>
<path d="M35.7984 8.10847L35.7977 8.1092L33.2354 10.7328L33.1697 10.8L33.1227 10.8815C33.0483 11.0101 33.0091 11.1561 33.0091 11.3048C33.0091 11.3832 33.02 11.4608 33.0412 11.5356L33.5831 15.0814L33.5831 15.0815L33.5844 15.0896C33.6133 15.266 33.592 15.4471 33.5228 15.612C33.4536 15.777 33.3393 15.9193 33.1929 16.0226C33.0464 16.1259 32.8737 16.186 32.6945 16.196C32.5156 16.2059 32.3376 16.1654 32.1807 16.0792C32.1805 16.0791 32.1802 16.079 32.18 16.0788L29.1953 14.4242L29.1865 14.4193L29.1775 14.4146C29.0558 14.3514 28.9207 14.3184 28.7836 14.3184C28.6465 14.3184 28.5114 14.3514 28.3897 14.4146L28.3807 14.4193L28.3719 14.4242L25.3853 16.0799L25.3853 16.0799L25.3808 16.0824C25.2245 16.1704 25.0464 16.2124 24.8671 16.2033L24.8291 16.9524L24.8671 16.2033C24.6878 16.1942 24.5148 16.1345 24.3683 16.0311C24.2217 15.9278 24.1077 15.7851 24.0393 15.6197C23.9709 15.4544 23.9509 15.2731 23.9816 15.0968L23.9816 15.0968L23.9829 15.0889L24.5668 11.5101C24.5863 11.4368 24.5963 11.3611 24.5963 11.2848C24.5963 11.1618 24.5704 11.0402 24.5204 10.9278L24.466 10.8056L24.3727 10.7097L21.8427 8.1104C21.7192 7.98335 21.6329 7.82502 21.5931 7.65262C21.5534 7.48048 21.5616 7.30079 21.6167 7.13293C21.6718 6.96727 21.7718 6.81998 21.9057 6.70746C22.0398 6.59476 22.2027 6.52138 22.3762 6.49555L22.3762 6.49561L22.3851 6.49418L25.8121 5.94228L25.8503 5.93613L25.8876 5.92608C26.0044 5.89469 26.1133 5.83955 26.2078 5.76407L26.2078 5.76406C26.3023 5.68858 26.3801 5.59438 26.4365 5.48733L26.4444 5.4724L26.4516 5.45713L27.9569 2.25767L27.9569 2.2577L27.9607 2.24936C28.035 2.08644 28.1548 1.94828 28.3059 1.85159C28.457 1.75489 28.6329 1.70379 28.8125 1.70454L28.8152 1.70454C28.9976 1.70465 29.1759 1.75774 29.3285 1.85726C29.4811 1.95677 29.6013 2.09839 29.6747 2.26477L29.6784 2.27327L29.6824 2.28167L31.1843 5.47393C31.2342 5.58405 31.3067 5.68246 31.3971 5.76276L31.3972 5.76279C31.493 5.84792 31.6067 5.91058 31.7298 5.94623L31.7765 5.95973L31.8245 5.96711L35.2595 6.49502L35.2595 6.49505L35.2658 6.49597C35.4371 6.5208 35.5979 6.59317 35.7299 6.70474C35.8619 6.8163 35.9598 6.96257 36.0125 7.12682L36.0148 7.13392L36.0172 7.14097C36.0741 7.30662 36.0837 7.48477 36.0451 7.65556C36.0065 7.82635 35.9211 7.98317 35.7984 8.10847Z" stroke="#C6BDBD" stroke-width="1.5"/>
<path d="M56.7984 8.10847L56.7977 8.1092L54.2354 10.7328L54.1697 10.8L54.1227 10.8815C54.0483 11.0101 54.0091 11.1561 54.0091 11.3048C54.0091 11.3832 54.02 11.4608 54.0412 11.5356L54.5831 15.0814L54.5831 15.0815L54.5844 15.0896C54.6133 15.266 54.592 15.4471 54.5228 15.612C54.4536 15.777 54.3393 15.9193 54.1929 16.0226C54.0464 16.1259 53.8737 16.186 53.6945 16.196C53.5156 16.2059 53.3376 16.1654 53.1807 16.0792C53.1805 16.0791 53.1802 16.079 53.18 16.0788L50.1953 14.4242L50.1865 14.4193L50.1775 14.4146C50.0558 14.3514 49.9207 14.3184 49.7836 14.3184C49.6465 14.3184 49.5114 14.3514 49.3897 14.4146L49.3807 14.4193L49.3719 14.4242L46.3853 16.0799L46.3853 16.0799L46.3808 16.0824C46.2245 16.1704 46.0464 16.2124 45.8671 16.2033L45.8291 16.9524L45.8671 16.2033C45.6878 16.1942 45.5148 16.1345 45.3683 16.0311C45.2217 15.9278 45.1077 15.7851 45.0393 15.6197C44.9709 15.4544 44.9509 15.2731 44.9816 15.0968L44.9816 15.0968L44.9829 15.0889L45.5668 11.5101C45.5863 11.4368 45.5963 11.3611 45.5963 11.2848C45.5963 11.1618 45.5704 11.0402 45.5204 10.9278L45.466 10.8056L45.3727 10.7097L42.8427 8.1104C42.7192 7.98335 42.6329 7.82502 42.5931 7.65262C42.5534 7.48048 42.5616 7.30079 42.6167 7.13293C42.6718 6.96727 42.7718 6.81998 42.9057 6.70746C43.0398 6.59476 43.2027 6.52138 43.3762 6.49555L43.3762 6.49561L43.3851 6.49418L46.8121 5.94228L46.8503 5.93613L46.8876 5.92608C47.0044 5.89469 47.1133 5.83955 47.2078 5.76407L47.2078 5.76406C47.3023 5.68858 47.3801 5.59438 47.4365 5.48733L47.4444 5.4724L47.4516 5.45713L48.9569 2.25767L48.9569 2.2577L48.9607 2.24936C49.035 2.08644 49.1548 1.94828 49.3059 1.85159C49.457 1.75489 49.6329 1.70379 49.8125 1.70454L49.8152 1.70454C49.9976 1.70465 50.1759 1.75774 50.3285 1.85726C50.4811 1.95677 50.6013 2.09839 50.6747 2.26477L50.6784 2.27327L50.6824 2.28167L52.1843 5.47393C52.2342 5.58405 52.3067 5.68246 52.3971 5.76276L52.3972 5.76279C52.493 5.84792 52.6067 5.91058 52.7298 5.94623L52.7765 5.95973L52.8245 5.96711L56.2595 6.49502L56.2595 6.49505L56.2658 6.49597C56.4371 6.5208 56.5979 6.59317 56.7299 6.70474C56.8619 6.8163 56.9598 6.96257 57.0125 7.12682L57.0148 7.13392L57.0172 7.14097C57.0741 7.30662 57.0837 7.48477 57.0451 7.65556C57.0065 7.82635 56.9211 7.98317 56.7984 8.10847Z" stroke="#C6BDBD" stroke-width="1.5"/>
<path d="M76.7984 8.10847L76.7977 8.1092L74.2354 10.7328L74.1697 10.8L74.1227 10.8815C74.0483 11.0101 74.0091 11.1561 74.0091 11.3048C74.0091 11.3832 74.02 11.4608 74.0412 11.5356L74.5831 15.0814L74.5831 15.0815L74.5844 15.0896C74.6133 15.266 74.592 15.4471 74.5228 15.612C74.4536 15.777 74.3393 15.9193 74.1929 16.0226C74.0464 16.1259 73.8737 16.186 73.6945 16.196C73.5156 16.2059 73.3376 16.1654 73.1807 16.0792C73.1805 16.0791 73.1802 16.079 73.18 16.0788L70.1953 14.4242L70.1865 14.4193L70.1775 14.4146C70.0558 14.3514 69.9207 14.3184 69.7836 14.3184C69.6465 14.3184 69.5114 14.3514 69.3897 14.4146L69.3807 14.4193L69.3719 14.4242L66.3853 16.0799L66.3853 16.0799L66.3808 16.0824C66.2245 16.1704 66.0464 16.2124 65.8671 16.2033L65.8291 16.9524L65.8671 16.2033C65.6878 16.1942 65.5148 16.1345 65.3683 16.0311C65.2217 15.9278 65.1077 15.7851 65.0393 15.6197C64.9709 15.4544 64.9509 15.2731 64.9816 15.0968L64.9816 15.0968L64.9829 15.0889L65.5668 11.5101C65.5863 11.4368 65.5963 11.3611 65.5963 11.2848C65.5963 11.1618 65.5704 11.0402 65.5204 10.9278L65.466 10.8056L65.3727 10.7097L62.8427 8.1104C62.7192 7.98335 62.6329 7.82502 62.5931 7.65262C62.5534 7.48048 62.5616 7.30079 62.6167 7.13293C62.6718 6.96727 62.7718 6.81998 62.9057 6.70746C63.0398 6.59476 63.2027 6.52138 63.3762 6.49555L63.3762 6.49561L63.3851 6.49418L66.8121 5.94228L66.8503 5.93613L66.8876 5.92608C67.0044 5.89469 67.1133 5.83955 67.2078 5.76407L67.2078 5.76406C67.3023 5.68858 67.3801 5.59438 67.4365 5.48733L67.4444 5.4724L67.4516 5.45713L68.9569 2.25767L68.9569 2.2577L68.9607 2.24936C69.035 2.08644 69.1548 1.94828 69.3059 1.85159C69.457 1.75489 69.6329 1.70379 69.8125 1.70454L69.8152 1.70454C69.9976 1.70465 70.1759 1.75774 70.3285 1.85726C70.4811 1.95677 70.6013 2.09839 70.6747 2.26477L70.6784 2.27327L70.6824 2.28167L72.1843 5.47393C72.2342 5.58405 72.3067 5.68246 72.3971 5.76276L72.3972 5.76279C72.493 5.84792 72.6067 5.91058 72.7298 5.94623L72.7765 5.95973L72.8245 5.96711L76.2595 6.49502L76.2595 6.49505L76.2658 6.49597C76.4371 6.5208 76.5979 6.59317 76.7299 6.70474C76.8619 6.8163 76.9598 6.96257 77.0125 7.12682L77.0148 7.13392L77.0172 7.14097C77.0741 7.30662 77.0837 7.48477 77.0451 7.65556C77.0065 7.82635 76.9211 7.98317 76.7984 8.10847Z" stroke="#C6BDBD" stroke-width="1.5"/>
<path d="M95.7984 8.10847L95.7977 8.1092L93.2354 10.7328L93.1697 10.8L93.1227 10.8815C93.0483 11.0101 93.0091 11.1561 93.0091 11.3048C93.0091 11.3832 93.02 11.4608 93.0412 11.5356L93.5831 15.0814L93.5831 15.0815L93.5844 15.0896C93.6133 15.266 93.592 15.4471 93.5228 15.612C93.4536 15.777 93.3393 15.9193 93.1929 16.0226C93.0464 16.1259 92.8737 16.186 92.6945 16.196C92.5156 16.2059 92.3376 16.1654 92.1807 16.0792C92.1805 16.0791 92.1802 16.079 92.18 16.0788L89.1953 14.4242L89.1865 14.4193L89.1775 14.4146C89.0558 14.3514 88.9207 14.3184 88.7836 14.3184C88.6465 14.3184 88.5114 14.3514 88.3897 14.4146L88.3807 14.4193L88.3719 14.4242L85.3853 16.0799L85.3853 16.0799L85.3808 16.0824C85.2245 16.1704 85.0464 16.2124 84.8671 16.2033L84.8291 16.9524L84.8671 16.2033C84.6878 16.1942 84.5148 16.1345 84.3683 16.0311C84.2217 15.9278 84.1077 15.7851 84.0393 15.6197C83.9709 15.4544 83.9509 15.2731 83.9816 15.0968L83.9816 15.0968L83.9829 15.0889L84.5668 11.5101C84.5863 11.4368 84.5963 11.3611 84.5963 11.2848C84.5963 11.1618 84.5704 11.0402 84.5204 10.9278L84.466 10.8056L84.3727 10.7097L81.8427 8.1104C81.7192 7.98335 81.6329 7.82502 81.5931 7.65262C81.5534 7.48048 81.5616 7.30079 81.6167 7.13293C81.6718 6.96727 81.7718 6.81998 81.9057 6.70746C82.0398 6.59476 82.2027 6.52138 82.3762 6.49555L82.3762 6.49561L82.3851 6.49418L85.8121 5.94228L85.8503 5.93613L85.8876 5.92608C86.0044 5.89469 86.1133 5.83955 86.2078 5.76407L86.2078 5.76406C86.3023 5.68858 86.3801 5.59438 86.4365 5.48733L86.4444 5.4724L86.4516 5.45713L87.9569 2.25767L87.9569 2.2577L87.9607 2.24936C88.035 2.08644 88.1548 1.94828 88.3059 1.85159C88.457 1.75489 88.6329 1.70379 88.8125 1.70454L88.8152 1.70454C88.9976 1.70465 89.1759 1.75774 89.3285 1.85726C89.4811 1.95677 89.6013 2.09839 89.6747 2.26477L89.6784 2.27327L89.6824 2.28167L91.1843 5.47393C91.2342 5.58405 91.3067 5.68246 91.3971 5.76276L91.3972 5.76279C91.493 5.84792 91.6067 5.91058 91.7298 5.94623L91.7765 5.95973L91.8245 5.96711L95.2595 6.49502L95.2595 6.49505L95.2658 6.49597C95.4371 6.5208 95.5979 6.59317 95.7299 6.70474C95.8619 6.8163 95.9598 6.96257 96.0125 7.12682L96.0148 7.13392L96.0172 7.14097C96.0741 7.30662 96.0837 7.48477 96.0451 7.65556C96.0065 7.82635 95.9211 7.98317 95.7984 8.10847Z" stroke="#C6BDBD" stroke-width="1.5"/>
</svg>
