<svg width="30" height="31" viewBox="0 0 30 31" fill="none" xmlns="http://www.w3.org/2000/svg">
<path d="M15 0.67424C12.0333 0.67424 9.13319 1.55397 6.66645 3.2022C4.19972 4.85042 2.27713 7.1931 1.14181 9.93399C0.00649923 12.6749 -0.290551 15.6909 0.288227 18.6006C0.867006 21.5103 2.29562 24.183 4.3934 26.2808C6.49119 28.3786 9.16393 29.8072 12.0736 30.386C14.9834 30.9648 17.9994 30.6677 20.7403 29.5324C23.4811 28.3971 25.8238 26.4745 27.472 24.0078C29.1203 21.541 30 18.641 30 15.6742C30 11.696 28.4196 7.88068 25.6066 5.06764C22.7936 2.25459 18.9783 0.67424 15 0.67424V0.67424ZM19.2671 10.4361C19.2671 10.7183 19.1487 10.8308 18.8724 10.8308C18.3414 10.8308 17.8105 10.8308 17.2816 10.8525C16.7526 10.8742 16.4645 11.115 16.4645 11.6677C16.4526 12.2598 16.4645 12.84 16.4645 13.444H18.7362C19.0599 13.444 19.1704 13.5545 19.1704 13.8802C19.1704 14.6696 19.1704 15.4631 19.1704 16.2604C19.1704 16.5821 19.0678 16.6828 18.7421 16.6848H16.4447V23.1071C16.4447 23.4506 16.3382 23.5591 15.9987 23.5591H13.5276C13.2296 23.5591 13.1132 23.4427 13.1132 23.1446V16.6946H11.1513C10.8434 16.6946 10.7329 16.5821 10.7329 16.2723C10.7329 15.4736 10.7329 14.6756 10.7329 13.8782C10.7329 13.5703 10.8493 13.4538 11.1533 13.4538H13.1132V11.7269C13.0899 10.9511 13.276 10.1834 13.652 9.5045C14.0428 8.81906 14.669 8.2987 15.4145 8.04003C15.8982 7.86401 16.4096 7.77578 16.9243 7.7795H18.8645C19.1428 7.7795 19.2592 7.90187 19.2592 8.17424C19.2691 8.93411 19.2691 9.68608 19.2671 10.4361Z" fill="#335B95"/>
</svg>
