<svg width="30" height="31" viewBox="0 0 30 31" fill="none" xmlns="http://www.w3.org/2000/svg">
<circle cx="15" cy="15.3258" r="15" fill="#E13430"/>
<path d="M7.07031 15.3258C7.07031 10.9538 10.6272 7.39697 14.9991 7.39697C16.7648 7.39697 18.4361 7.96505 19.8322 9.03982L17.9897 11.4333C17.1265 10.7688 16.0923 10.4175 14.9991 10.4175C12.2927 10.4175 10.0908 12.6193 10.0908 15.3258C10.0908 18.0322 12.2927 20.2341 14.9991 20.2341C17.1789 20.2341 19.0313 18.8059 19.6697 16.836H14.9991V13.8155H22.9279V15.3258C22.9279 19.6977 19.3711 23.2546 14.9991 23.2546C10.6272 23.2546 7.07031 19.6977 7.07031 15.3258Z" fill="white"/>
</svg>
