<svg width="30" height="31" viewBox="0 0 30 31" fill="none" xmlns="http://www.w3.org/2000/svg">
<path d="M15 0.674194C12.0333 0.674194 9.13319 1.55393 6.66645 3.20215C4.19972 4.85037 2.27713 7.19305 1.14181 9.93394C0.00649923 12.6748 -0.290551 15.6908 0.288227 18.6005C0.867006 21.5103 2.29562 24.183 4.3934 26.2808C6.49119 28.3786 9.16393 29.8072 12.0736 30.386C14.9834 30.9647 17.9994 30.6677 20.7403 29.5324C23.4811 28.3971 25.8238 26.4745 27.472 24.0077C29.1203 21.541 30 18.6409 30 15.6742C30 11.6959 28.4196 7.88064 25.6066 5.06759C22.7936 2.25455 18.9783 0.674194 15 0.674194V0.674194ZM22.7211 11.7268C22.7211 11.8966 22.7349 12.0663 22.7349 12.242C22.7349 17.5058 18.7263 23.5788 11.3941 23.5788C9.22453 23.5875 7.09909 22.9663 5.27566 21.7906C5.59185 21.8301 5.91032 21.8486 6.22895 21.8459C8.01726 21.8461 9.7542 21.2479 11.1632 20.1466C10.3329 20.122 9.53055 19.8412 8.86621 19.3426C8.20188 18.844 7.7081 18.1521 7.45264 17.3617C7.70149 17.411 7.95491 17.4335 8.20856 17.4288C8.56082 17.4319 8.91192 17.3881 9.25264 17.2985C8.35166 17.1121 7.54242 16.6209 6.96115 15.9077C6.37988 15.1945 6.06206 14.3028 6.06119 13.3827V13.3393C6.61306 13.6452 7.23045 13.8138 7.86119 13.8308C7.01614 13.2661 6.41865 12.4 6.19084 11.4095C5.96303 10.419 6.1221 9.37895 6.63553 8.50182C7.63404 9.73554 8.88164 10.7447 10.2968 11.4633C11.7119 12.1819 13.2628 12.5939 14.848 12.6722C14.7836 12.374 14.7525 12.0695 14.7553 11.7643C14.7546 10.9649 14.9945 10.1838 15.4437 9.52256C15.893 8.86133 16.5309 8.35059 17.2743 8.05678C18.0178 7.76297 18.8325 7.69969 19.6124 7.87516C20.3923 8.05062 21.1014 8.45673 21.6474 9.04064C22.5384 8.86542 23.3928 8.539 24.1737 8.07551C23.879 8.99962 23.2554 9.7834 22.4211 10.2781C23.2125 10.1798 23.9856 9.96773 24.7164 9.64853C24.1839 10.4574 23.5076 11.1618 22.7211 11.7268Z" fill="#3FCEFC"/>
</svg>
