<svg width="42" height="40" viewBox="0 0 42 40" fill="none" xmlns="http://www.w3.org/2000/svg">
<path fill-rule="evenodd" clip-rule="evenodd" d="M20.0398 21.7522C20.0449 21.7573 20.05 21.7599 20.0551 21.7624C20.0602 21.765 20.0653 21.7675 20.0704 21.7726C22.374 24.0661 25.5441 25.4829 29.0505 25.4829C32.557 25.4829 35.7271 24.0661 38.0307 21.7726C38.0358 21.7675 38.0409 21.765 38.046 21.7624C38.0511 21.7599 38.0562 21.7573 38.0613 21.7522C38.0664 21.7471 38.069 21.742 38.0715 21.7369C38.0741 21.7318 38.0766 21.7267 38.0817 21.7216C40.3752 19.418 41.792 16.2479 41.792 12.7415C41.792 9.23501 40.3752 6.06494 38.0817 3.76128C38.0766 3.75618 38.0741 3.75109 38.0715 3.74599C38.069 3.74089 38.0664 3.7358 38.0613 3.7307C38.0562 3.7256 38.0511 3.72306 38.046 3.72051C38.0409 3.71796 38.0358 3.71541 38.0307 3.71031C35.7271 1.41685 32.5468 0 29.0505 0C25.5543 0 22.374 1.41685 20.0704 3.71031C20.0653 3.71541 20.0602 3.71796 20.0551 3.72051C20.05 3.72306 20.0449 3.7256 20.0398 3.7307C20.0347 3.7358 20.0321 3.74089 20.0296 3.74599C20.027 3.75109 20.0245 3.75618 20.0194 3.76128C17.7259 6.06494 16.3091 9.23501 16.3091 12.7415C16.3091 16.2479 17.7259 19.418 20.0194 21.7216C20.0245 21.7267 20.027 21.7318 20.0296 21.7369C20.0321 21.742 20.0347 21.7471 20.0398 21.7522ZM19.4792 11.345C19.7136 9.71409 20.3558 8.2157 21.3037 6.95174C21.477 7.0129 21.6605 7.05367 21.844 7.05367C22.2313 7.05367 22.6288 6.90078 22.9244 6.60517C23.3628 6.16687 23.4749 5.5247 23.271 4.98446C24.535 4.0365 26.0334 3.39433 27.6643 3.15988C27.8987 3.70012 28.4288 4.07727 29.0505 4.07727C29.6723 4.07727 30.2024 3.70012 30.447 3.17008C32.0779 3.40452 33.5763 4.04669 34.8403 4.99465C34.6364 5.53489 34.7485 6.17706 35.1868 6.61537C35.4824 6.91097 35.88 7.06387 36.2673 7.06387C36.4508 7.06387 36.6343 7.0231 36.8075 6.96194C37.7555 8.22589 38.3977 9.72429 38.6321 11.3552C38.1021 11.5896 37.7249 12.1299 37.7249 12.7517C37.7249 13.3734 38.1021 13.9035 38.6321 14.1481C38.3977 15.779 37.7555 17.2774 36.8075 18.5414C36.2673 18.3375 35.6251 18.4496 35.1868 18.8879C34.7485 19.3263 34.6364 19.9684 34.8403 20.5087C34.0656 21.0897 33.1992 21.5586 32.2716 21.8847C32.4856 21.6197 32.6283 21.2833 32.6283 20.9164V19.8971C32.6283 19.051 31.9454 18.3681 31.0994 18.3681C30.2533 18.3681 29.5704 19.051 29.5704 19.8971V20.9164C29.5704 21.5484 29.9577 22.0886 30.5082 22.323C30.0393 22.3944 29.5602 22.4454 29.0607 22.4454C26.8896 22.4454 24.8917 21.7216 23.2812 20.5087C23.4851 19.9684 23.3729 19.3263 22.9346 18.8879C22.4963 18.4496 21.8542 18.3375 21.3139 18.5414C20.366 17.2774 19.7238 15.779 19.4894 14.1481C20.0194 13.9137 20.3965 13.3734 20.3965 12.7517C20.3965 12.1299 20.0092 11.5896 19.4792 11.345ZM24.9733 14.2704H29.0505C29.8966 14.2704 30.5795 13.5875 30.5795 12.7415V6.62556C30.5795 5.77953 29.8966 5.09659 29.0505 5.09659C28.2045 5.09659 27.5216 5.77953 27.5216 6.62556V11.2125H24.9733C24.1272 11.2125 23.4443 11.8954 23.4443 12.7415C23.4443 13.5875 24.1272 14.2704 24.9733 14.2704ZM15.2898 38.2244C15.2898 39.0704 14.6068 39.7533 13.7608 39.7533H1.52898C0.682943 39.7533 0 39.0704 0 38.2244V28.0312C0 27.1852 0.682943 26.5022 1.52898 26.5022H13.7608C14.6068 26.5022 15.2898 27.1852 15.2898 28.0312V38.2244ZM6.1159 29.5602H3.05795V36.6954H12.2318V29.5602H9.17385V31.0891C9.17385 31.9352 8.49091 32.6181 7.64488 32.6181C6.79885 32.6181 6.1159 31.9352 6.1159 31.0891V29.5602ZM1.52898 25.4828H13.7608C14.6068 25.4828 15.2898 24.7999 15.2898 23.9539V13.7607C15.2898 12.9147 14.6068 12.2317 13.7608 12.2317H1.52898C0.682943 12.2317 0 12.9147 0 13.7607V23.9539C0 24.7999 0.682943 25.4828 1.52898 25.4828ZM3.05795 15.2897H6.1159V16.8186C6.1159 17.6647 6.79885 18.3476 7.64488 18.3476C8.49091 18.3476 9.17385 17.6647 9.17385 16.8186V15.2897H12.2318V22.4249H3.05795V15.2897ZM17.8381 39.7533C16.992 39.7533 16.3091 39.0704 16.3091 38.2244V28.0312C16.3091 27.1852 16.992 26.5022 17.8381 26.5022H30.0699C30.9159 26.5022 31.5988 27.1852 31.5988 28.0312V38.2244C31.5988 39.0704 30.9159 39.7533 30.0699 39.7533H17.8381ZM22.425 29.5602H19.367V36.6954H28.5409V29.5602H25.4829V31.0891C25.4829 31.9352 24.8 32.6181 23.954 32.6181C23.1079 32.6181 22.425 31.9352 22.425 31.0891V29.5602Z" fill="#FB8B24"/>
</svg>
