<svg width="97" height="35" viewBox="0 0 97 35" fill="none" xmlns="http://www.w3.org/2000/svg">
<g clip-path="url(#clip0)">
<path d="M82.4158 23.9715C79.5001 23.9715 77.1387 26.4305 77.1387 29.4667C77.1387 32.5028 79.5001 34.9619 82.4158 34.9619C85.3314 34.9619 87.6929 32.5028 87.6929 29.4667C87.6929 26.4305 85.3314 23.9715 82.4158 23.9715ZM82.4158 32.4526C80.8254 32.4526 79.5483 31.1227 79.5483 29.4667C79.5483 27.8106 80.8254 26.4807 82.4158 26.4807C84.0061 26.4807 85.2832 27.8106 85.2832 29.4667C85.2832 31.1227 84.0061 32.4526 82.4158 32.4526Z" fill="#C4C4C4"/>
<path d="M93.4515 7.20982C91.8611 5.62901 81.4997 5.27772 80.7045 5.27772C79.9093 5.27772 79.9093 6.50724 79.9093 6.50724V21.8386C79.5961 21.939 79.2828 22.0895 78.9937 22.2401V0.961853H77.066V22.9427H72.0298V20.1574V19.8061V13.9596H13.4997V20.1574V22.9427H3.04186V27.6851H1.4515V27.2334H0.439453V29.6423H1.4515V28.739H5.78885V27.9109H17.5961C18.2708 25.0253 20.7527 22.8925 23.7166 22.8925C26.6804 22.8925 29.1623 25.0253 29.837 27.9109H76.1744C76.2708 27.4593 76.4154 27.0578 76.6081 26.6563C76.6804 26.4807 76.7768 26.305 76.8732 26.1294C76.8973 26.1043 76.9214 26.0541 76.9455 26.029C77.0419 25.8785 77.1383 25.7279 77.2346 25.5774L77.2587 25.5523C77.4997 25.201 77.7648 24.8999 78.0539 24.5988C79.1864 23.4947 80.7286 22.8172 82.3913 22.8172C85.9093 22.8172 88.7768 25.8032 88.7768 29.4666V31.3988C88.7768 31.3988 94.9214 31.3988 95.6443 31.3988C96.3672 31.3988 96.4395 29.6423 96.4395 29.6423V23.9464C96.4395 23.9464 96.4395 21.5375 96.4395 19.2541C96.4395 16.9707 95.0419 8.79064 93.4515 7.20982ZM94.1503 15.7663C94.1503 15.7663 85.7166 15.1892 84.6081 14.9382C83.4997 14.6873 83.5961 13.3825 83.5961 13.3825V9.69396C83.5961 9.69396 83.3792 8.43934 84.4876 8.43934C84.4876 8.43934 91.066 8.43934 92.2226 8.43934C93.3792 8.43934 93.6443 9.41794 93.6443 9.41794C93.6443 9.41794 94.6081 12.9309 94.9455 14.3862C95.3069 15.8416 94.1503 15.7663 94.1503 15.7663Z" fill="#C4C4C4"/>
<path d="M23.7888 23.9715C20.8732 23.9715 18.5117 26.4305 18.5117 29.4667C18.5117 32.5028 20.8732 34.9619 23.7888 34.9619C26.7045 34.9619 29.0659 32.5028 29.0659 29.4667C29.0659 26.4305 26.7045 23.9715 23.7888 23.9715ZM23.7888 32.4526C22.1985 32.4526 20.9214 31.1227 20.9214 29.4667C20.9214 27.8106 22.1985 26.4807 23.7888 26.4807C25.3792 26.4807 26.6563 27.8106 26.6563 29.4667C26.6804 31.1227 25.3792 32.4526 23.7888 32.4526Z" fill="#C4C4C4"/>
</g>
<defs>
<clipPath id="clip0">
<rect x="0.439453" y="0.961853" width="96" height="34" rx="3" fill="white"/>
</clipPath>
</defs>
</svg>
