<svg width="68" height="34" viewBox="0 0 68 34" fill="none" xmlns="http://www.w3.org/2000/svg">
<g clip-path="url(#clip0)">
<path d="M57.0972 25.0518C54.8986 25.0518 53.0977 26.8294 53.0977 29.0514C53.0977 31.25 54.8752 33.051 57.0972 33.051C59.2958 33.051 61.0968 31.2734 61.0968 29.0514C61.0968 26.8528 59.2958 25.0518 57.0972 25.0518ZM57.0972 31.5307C55.7172 31.5307 54.618 30.4314 54.618 29.0514C54.618 27.6714 55.7172 26.5721 57.0972 26.5721C58.4772 26.5721 59.5765 27.6714 59.5765 29.0514C59.5765 30.4314 58.4772 31.5307 57.0972 31.5307Z" fill="#C4C4C4"/>
<path d="M67.1308 24.8881C67.1308 24.8881 67.0841 21.4967 65.6105 20.6547C64.137 19.8127 59.5761 17.4971 59.5761 17.4971C59.5761 17.4971 59.2487 17.2632 58.664 17.3334L51.577 10.0126C51.577 10.0126 49.3784 8.49226 43.0165 7.97769C43.0165 7.97769 41.8237 8.14142 41.8237 9.498C41.8237 10.8546 41.8237 18.2222 41.8237 18.2222H41.1454V0.65686H0.869141V24.6542H6.08494V27.8586H13.2654C13.6163 26.4552 14.5518 25.3091 15.8149 24.6542C16.4932 24.3034 17.2416 24.1163 18.0602 24.1163C18.8789 24.1163 19.6273 24.3268 20.3056 24.6542C21.5686 25.2857 22.5042 26.4552 22.855 27.8586H32.4914V28.6538L34.6432 29.4256H52.0916C52.0916 29.3087 52.0682 29.1917 52.0682 29.0748C52.0682 26.4084 54.4305 24.0227 57.1203 24.0227C59.7866 24.0227 62.1723 26.385 62.1723 29.0748C62.1723 29.1917 62.1723 29.3087 62.1489 29.4256C62.6167 29.4256 64.7218 29.449 65.2363 29.2385C67.622 28.2796 67.6688 26.7125 67.7156 26.0342C67.739 25.3325 67.1308 24.8881 67.1308 24.8881ZM53.5651 17.4503C53.5651 17.8947 53.0505 17.8012 53.0505 17.8012C48.7001 17.7778 49.0977 17.848 46.4548 17.5205C45.3087 17.3802 44.1626 17.4036 43.9755 16.7487C43.765 16.047 43.9287 11.5562 43.9287 10.9013C43.9287 10.2465 44.6772 10.3868 44.6772 10.3868C44.6772 10.3868 48.3493 10.7142 49.3784 10.9949C50.3842 11.2756 53.261 13.825 53.261 13.825C53.5417 14.1291 53.5651 14.667 53.5651 14.8307C53.5651 14.8074 53.5651 17.0059 53.5651 17.4503Z" fill="#C4C4C4"/>
<path d="M18.0601 25.239C15.8615 25.239 14.0605 27.0165 14.0605 29.2385C14.0605 31.4371 15.8381 33.2381 18.0601 33.2381C20.2587 33.2381 22.0597 31.4605 22.0597 29.2385C22.0597 27.0165 20.2587 25.239 18.0601 25.239ZM18.0601 31.6944C16.6801 31.6944 15.5808 30.5951 15.5808 29.2151C15.5808 27.8352 16.6801 26.7359 18.0601 26.7359C19.4401 26.7359 20.5394 27.8352 20.5394 29.2151C20.5394 30.5951 19.4401 31.6944 18.0601 31.6944Z" fill="#C4C4C4"/>
</g>
<defs>
<clipPath id="clip0">
<rect x="0.869141" y="0.65686" width="66.8231" height="32.5578" rx="3" fill="white"/>
</clipPath>
</defs>
</svg>
