<svg width="67" height="28" viewBox="0 0 67 28" fill="none" xmlns="http://www.w3.org/2000/svg">
<g clip-path="url(#clip0)">
<path d="M11.7268 18.3043C9.11438 18.3043 7.01953 20.4805 7.01953 23.1375C7.01953 25.8198 9.13902 27.9706 11.7268 27.9706C14.3392 27.9706 16.434 25.7944 16.434 23.1375C16.434 20.4805 14.3392 18.3043 11.7268 18.3043ZM11.7268 26.1993C10.1002 26.1993 8.76935 24.8329 8.76935 23.1628C8.76935 21.4927 10.1002 20.1262 11.7268 20.1262C13.3534 20.1262 14.6842 21.4927 14.6842 23.1628C14.6842 24.8329 13.3534 26.1993 11.7268 26.1993Z" fill="#FB8B24"/>
<path d="M55.9416 18.3043C53.3292 18.3043 51.2344 20.4805 51.2344 23.1375C51.2344 25.8198 53.3539 27.9706 55.9416 27.9706C58.554 27.9706 60.6489 25.7944 60.6489 23.1375C60.6489 20.4805 58.554 18.3043 55.9416 18.3043ZM55.9416 26.1993C54.315 26.1993 52.9842 24.8329 52.9842 23.1628C52.9842 21.4927 54.315 20.1262 55.9416 20.1262C57.5682 20.1262 58.8991 21.4927 58.8991 23.1628C58.8991 24.8329 57.5682 26.1993 55.9416 26.1993Z" fill="#FB8B24"/>
<path d="M66.4155 18.8104C66.4155 18.8104 66.8837 17.7223 65.9965 15.7232C64.9861 13.4458 58.6029 10.8647 58.0114 10.4092C57.5925 10.1056 56.6806 10.055 56.1631 10.0297C55.8673 9.85255 52.6634 7.57514 48.4984 4.53858C45.9353 2.66604 42.6575 1.80569 40.119 1.42612C38.246 1.07185 36.7426 0.995941 36.2743 0.995941C36.2743 0.995941 6.2564 0.995941 5.04879 0.995941C3.84117 0.995941 3.54543 1.93221 3.29897 2.66604C2.06671 6.43643 1.79561 14.4327 1.79561 14.4327V20.5311C1.22877 20.5311 0.785156 20.9866 0.785156 21.5686V22.0747C0.785156 22.6567 1.22877 23.1122 1.79561 23.1122L6.20711 23.1375C6.20711 19.8985 8.40054 17.2921 11.5551 17.2921C14.7097 17.2921 17.2482 19.9238 17.2482 23.1375V23.8207C17.2482 23.8207 39.4043 24.2762 41.5977 24.3774C43.7911 24.4786 50.5439 24.7063 50.5439 24.7063L50.5686 23.1375C50.5686 19.8985 52.762 17.2921 55.9166 17.2921C59.0712 17.2921 61.6097 19.9238 61.6097 23.1375L61.6343 24.5292H63.5566C65.6022 24.4786 66.4401 22.3783 66.6866 21.518C66.9577 20.6576 66.4155 18.8104 66.4155 18.8104ZM36.3483 10.6623V2.76726C40.9076 2.66604 43.4707 4.0831 43.4707 4.0831L47.3154 6.61356V8.76445C47.1675 8.68854 47.0197 8.61262 46.8718 8.56201L46.4282 8.5114C45.8613 8.5114 45.5902 8.96689 45.5902 9.54889V10.7129C45.5902 10.966 45.6888 11.1937 45.8367 11.3708L36.3483 10.6623ZM43.1257 2.76726L43.3475 2.69135C45.0234 3.19744 46.7239 3.90597 48.2026 4.99407C51.4558 7.3727 54.1421 9.29585 55.2758 10.1056L54.2407 10.1815C46.8471 4.6398 43.1257 2.76726 43.1257 2.76726Z" fill="#FB8B24"/>
</g>
<defs>
<clipPath id="clip0">
<rect x="0.785156" y="0.995941" width="66" height="27" rx="3" fill="white"/>
</clipPath>
</defs>
</svg>
