<svg width="97" height="34" viewBox="0 0 97 34" fill="none" xmlns="http://www.w3.org/2000/svg">
<g clip-path="url(#clip0)">
<path d="M82.738 22.9787C79.8224 22.9787 77.4609 25.3654 77.4609 28.3123C77.4609 31.2592 79.8224 33.6459 82.738 33.6459C85.6537 33.6459 88.0152 31.2592 88.0152 28.3123C88.0152 25.3654 85.6537 22.9787 82.738 22.9787ZM82.738 31.2104C81.1477 31.2104 79.8706 29.9197 79.8706 28.3123C79.8706 26.7049 81.1477 25.4141 82.738 25.4141C84.3284 25.4141 85.6055 26.7049 85.6055 28.3123C85.6055 29.9197 84.3284 31.2104 82.738 31.2104Z" fill="#C4C4C4"/>
<path d="M93.7738 6.71008C92.1834 5.17576 81.822 4.8348 81.0268 4.8348C80.2316 4.8348 80.2316 6.02816 80.2316 6.02816V20.9086C79.9183 21.006 79.6051 21.1521 79.3159 21.2983V0.645874H77.3882V21.9802H72.3521V19.2769V18.9359V13.2614H13.822V19.2769V21.9802H3.36413V26.5831H1.77377V26.1448H0.761719V28.4828H1.77377V27.606H6.11112V26.8023H17.9183C18.593 24.0016 21.075 21.9315 24.0388 21.9315C27.0027 21.9315 29.4846 24.0016 30.1593 26.8023H76.4967C76.593 26.364 76.7376 25.9743 76.9304 25.5846C77.0027 25.4141 77.0991 25.2437 77.1955 25.0732C77.2196 25.0488 77.2436 25.0001 77.2677 24.9758C77.3641 24.8296 77.4605 24.6835 77.5569 24.5374L77.581 24.513C77.822 24.1721 78.087 23.8798 78.3762 23.5876C79.5087 22.516 81.0509 21.8584 82.7135 21.8584C86.2316 21.8584 89.0991 24.7566 89.0991 28.3123V30.1876C89.0991 30.1876 95.2437 30.1876 95.9665 30.1876C96.6894 30.1876 96.7617 28.4828 96.7617 28.4828V22.9544C96.7617 22.9544 96.7617 20.6164 96.7617 18.4001C96.7617 16.1839 95.3641 8.2444 93.7738 6.71008ZM94.4726 15.0149C94.4726 15.0149 86.0388 14.4547 84.9304 14.2112C83.822 13.9676 83.9184 12.7012 83.9184 12.7012V9.12115C83.9184 9.12115 83.7015 7.90344 84.8099 7.90344C84.8099 7.90344 91.3882 7.90344 92.5449 7.90344C93.7015 7.90344 93.9665 8.85325 93.9665 8.85325C93.9665 8.85325 94.9304 12.2628 95.2677 13.6754C95.6292 15.0879 94.4726 15.0149 94.4726 15.0149Z" fill="#C4C4C4"/>
<path d="M24.1111 22.9787C21.1954 22.9787 18.834 25.3654 18.834 28.3123C18.834 31.2592 21.1954 33.6459 24.1111 33.6459C27.0268 33.6459 29.3882 31.2592 29.3882 28.3123C29.3882 25.3654 27.0268 22.9787 24.1111 22.9787ZM24.1111 31.2104C22.5207 31.2104 21.2436 29.9197 21.2436 28.3123C21.2436 26.7049 22.5207 25.4141 24.1111 25.4141C25.7015 25.4141 26.9786 26.7049 26.9786 28.3123C27.0027 29.9197 25.7015 31.2104 24.1111 31.2104Z" fill="#C4C4C4"/>
</g>
<defs>
<clipPath id="clip0">
<rect x="0.761719" y="0.645874" width="96" height="33" rx="3" fill="white"/>
</clipPath>
</defs>
</svg>
